<?xml version="1.0" encoding="utf-8"?>
<!-- Generator: Adobe Illustrator 17.0.0, SVG Export Plug-In . SVG Version: 6.00 Build 0)  -->
<!DOCTYPE svg PUBLIC "-//W3C//DTD SVG 1.1//EN" "http://www.w3.org/Graphics/SVG/1.1/DTD/svg11.dtd">
<svg version="1.1" id="Layer_1" xmlns="http://www.w3.org/2000/svg" xmlns:xlink="http://www.w3.org/1999/xlink" x="0px" y="0px"
	 width="499px" height="149px" viewBox="1 1 499 149" enable-background="new 1 1 499 149" xml:space="preserve">
<path fill="#F22A2A" d="M2.054,134.722c500.334-56.856,500.334-56.856,500.334-56.856L500,150l-500.5,0.5L0,135.057L2.054,134.722z"
	/>
<polygon opacity="0.9" fill="#211915" enable-background="new    " points="18.773,150 0,100 0,150 "/>
<polygon opacity="0.9" fill="#211915" enable-background="new    " points="500.25,131.22 441.853,0 500,0 "/>
<polyline fill="#F2F2F2" points="12.171,132.22 0,100 0,0 442,0 477.752,80.666 12.587,133.525 "/>
<text transform="matrix(1 0 0 1 302.3335 130.667)" fill="#FFFFFF" font-family="'TypefaceSix'" font-size="21">50+ eMPLOYEES</text>
<g>
	<polyline fill="none" stroke="#000000" stroke-width="2" stroke-miterlimit="10" points="231.5,83.5 231.5,44.5 268.5,44.5 
		268.5,68.5 	"/>
	<polyline fill="none" stroke="#000000" stroke-width="2" stroke-miterlimit="10" points="226.5,91.5 226.5,62.5 207.5,62.5 
		207.5,80.5 	"/>
	<polyline fill="none" stroke="#000000" stroke-width="2" stroke-miterlimit="10" points="197.5,69.5 197.5,52.5 216.5,52.5 
		216.5,63.5 	"/>
	
		<rect x="213.708" y="66.564" fill="none" stroke="#000000" stroke-width="2" stroke-miterlimit="10" width="8.946" height="8.946"/>
	<g>
		
			<rect x="237.981" y="49.246" fill="none" stroke="#000000" stroke-width="2" stroke-miterlimit="10" width="8.946" height="8.946"/>
		
			<rect x="253.82" y="49.246" fill="none" stroke="#000000" stroke-width="2" stroke-miterlimit="10" width="8.946" height="8.946"/>
	</g>
	
		<rect x="237.981" y="64.871" fill="none" stroke="#000000" stroke-width="2" stroke-miterlimit="10" width="8.946" height="8.946"/>
	<polyline fill="none" stroke="#000000" stroke-width="2" stroke-miterlimit="10" points="262.5,44.5 262.5,9.5 206.5,9.5 
		206.5,51.5 	"/>
	<g>
		
			<rect x="214.857" y="17.345" fill="none" stroke="#000000" stroke-width="2" stroke-miterlimit="10" width="8.946" height="8.946"/>
		
			<rect x="230.697" y="17.345" fill="none" stroke="#000000" stroke-width="2" stroke-miterlimit="10" width="8.946" height="8.946"/>
	</g>
	<rect x="214.857" y="32.97" fill="none" stroke="#000000" stroke-width="2" stroke-miterlimit="10" width="8.946" height="8.946"/>
	
		<rect x="247.884" y="17.345" fill="none" stroke="#000000" stroke-width="2" stroke-miterlimit="10" width="8.946" height="8.946"/>
</g>
</svg>
