<?xml version="1.0" encoding="utf-8"?>
<!-- Generator: Adobe Illustrator 17.0.0, SVG Export Plug-In . SVG Version: 6.00 Build 0)  -->
<!DOCTYPE svg PUBLIC "-//W3C//DTD SVG 1.1//EN" "http://www.w3.org/Graphics/SVG/1.1/DTD/svg11.dtd">
<svg version="1.1" id="Layer_1" xmlns="http://www.w3.org/2000/svg" xmlns:xlink="http://www.w3.org/1999/xlink" x="0px" y="0px"
	 width="115px" height="75px" viewBox="0 0 115 75" enable-background="new 0 0 115 75" xml:space="preserve">
<path fill="#F22A2A" d="M44.241,29.34c5.775-2.958,11.864-2.609,13.6,0.78c1.736,3.389-1.538,8.534-7.313,11.493
	c-5.775,2.958-11.864,2.609-13.6-0.78C35.192,37.444,38.466,32.299,44.241,29.34"/>
<path fill="#F2F2F2" d="M42.289,43.971c0,0-0.135-0.393-0.268-1.098c-0.131-0.705-0.267-1.724-0.238-2.973
	c0.024-0.622,0.054-1.311,0.199-2.032c0.138-0.721,0.327-1.497,0.661-2.281c0.335-0.779,0.812-1.589,1.486-2.293
	c0.149-0.149,0.232-0.263,0.436-0.442c0.195-0.171,0.393-0.348,0.598-0.507c0.404-0.301,0.86-0.566,1.368-0.771
	c1.021-0.421,2.2-0.438,3.07-0.297c0.889,0.133,1.589,0.335,2.192,0.427c0.283,0.051,0.613,0.082,0.814,0.092
	c0.25-0.01,0.143,0.016,0.304-0.002c0.106-0.007,0.218-0.029,0.332-0.059c0.458-0.119,0.945-0.371,1.397-0.635
	c0.89-0.561,1.64-1.179,2.158-1.615c0.519-0.448,0.815-0.704,0.815-0.704l0.524,0.318c0,0-0.106,0.415-0.41,1.077
	c-0.307,0.66-0.784,1.6-1.687,2.577c-0.447,0.495-1.011,1.001-1.805,1.398c-0.197,0.1-0.41,0.193-0.641,0.268
	c-0.173,0.074-0.627,0.163-0.73,0.179c-0.507,0.06-0.903,0.066-1.355,0.054c-0.866-0.046-1.653-0.199-2.299-0.265
	c-0.658-0.076-1.1-0.023-1.553,0.122c-0.227,0.078-0.453,0.211-0.694,0.355l-0.317,0.223c-0.102,0.063-0.275,0.244-0.409,0.36
	c-0.448,0.367-0.816,0.852-1.158,1.378c-0.324,0.537-0.632,1.102-0.86,1.682c-0.224,0.579-0.454,1.144-0.619,1.686
	c-0.341,1.082-0.586,2.03-0.753,2.7c-0.164,0.677-0.258,1.064-0.258,1.064L42.289,43.971z"/>
<path fill="#F22A2A" d="M72.403,50.147c0.483,6.471-2.203,11.946-6.001,12.23c-3.797,0.283-7.267-4.732-7.75-11.203
	c-0.483-6.471,2.203-11.946,6.001-12.23C68.45,38.661,71.919,43.677,72.403,50.147"/>
<path fill="#F2F2F2" d="M59.678,42.667c0,0,0.415,0.028,1.116,0.18c0.7,0.153,1.693,0.423,2.832,0.935
	c0.564,0.264,1.187,0.559,1.795,0.972c0.611,0.408,1.253,0.883,1.845,1.495c0.589,0.612,1.149,1.365,1.536,2.26
	c0.079,0.195,0.153,0.316,0.238,0.573c0.081,0.247,0.169,0.498,0.235,0.749c0.12,0.489,0.188,1.012,0.179,1.56
	c-0.009,1.104-0.45,2.197-0.919,2.944c-0.468,0.767-0.926,1.334-1.245,1.854c-0.156,0.241-0.313,0.533-0.4,0.714
	c-0.088,0.235-0.07,0.127-0.117,0.282c-0.034,0.1-0.058,0.211-0.074,0.328c-0.068,0.469-0.026,1.016,0.042,1.534
	c0.172,1.038,0.45,1.97,0.651,2.616c0.211,0.652,0.332,1.025,0.332,1.025l-0.497,0.359c0,0-0.341-0.258-0.834-0.796
	c-0.488-0.54-1.169-1.344-1.718-2.556c-0.283-0.604-0.53-1.32-0.587-2.206c-0.016-0.221-0.019-0.452,0.001-0.695
	c-0.001-0.188,0.094-0.641,0.119-0.742c0.141-0.491,0.29-0.858,0.476-1.27c0.379-0.78,0.826-1.445,1.138-2.015
	c0.325-0.577,0.448-1.005,0.49-1.478c0.017-0.24-0.018-0.499-0.057-0.777l-0.083-0.379c-0.018-0.12-0.118-0.349-0.172-0.517
	c-0.165-0.556-0.468-1.083-0.821-1.602c-0.368-0.507-0.77-1.011-1.215-1.447c-0.447-0.431-0.879-0.862-1.314-1.224
	c-0.864-0.735-1.643-1.329-2.195-1.743c-0.56-0.414-0.88-0.651-0.88-0.651L59.678,42.667z"/>
<path fill="#F22A2A" d="M77.982,22.255c2.638,5.928,1.957,11.989-1.522,13.537s-8.438-2.002-11.076-7.93
	c-2.638-5.928-1.957-11.989,1.522-13.537C70.385,12.776,75.344,16.327,77.982,22.255"/>
<path fill="#F2F2F2" d="M63.479,19.507c0,0,0.4-0.113,1.111-0.207c0.711-0.092,1.736-0.173,2.982-0.076
	c0.62,0.059,1.305,0.126,2.018,0.31c0.712,0.177,1.477,0.408,2.241,0.784c0.76,0.378,1.542,0.898,2.208,1.61
	c0.141,0.156,0.25,0.246,0.418,0.459c0.16,0.204,0.326,0.412,0.474,0.625c0.278,0.42,0.518,0.889,0.694,1.408
	c0.365,1.043,0.318,2.221,0.129,3.082c-0.181,0.88-0.421,1.568-0.546,2.166c-0.066,0.279-0.115,0.607-0.136,0.807
	c-0.004,0.25-0.024,0.143-0.015,0.304c0.002,0.106,0.017,0.219,0.041,0.335c0.094,0.463,0.318,0.964,0.557,1.429
	c0.512,0.919,1.088,1.702,1.495,2.243c0.419,0.543,0.659,0.853,0.659,0.853l-0.347,0.505c0,0-0.408-0.128-1.053-0.468
	c-0.642-0.343-1.554-0.87-2.48-1.825c-0.47-0.474-0.945-1.065-1.298-1.879c-0.089-0.203-0.17-0.42-0.233-0.655
	c-0.064-0.176-0.127-0.635-0.138-0.739c-0.033-0.509-0.016-0.905,0.02-1.355c0.093-0.863,0.289-1.64,0.391-2.282
	c0.111-0.653,0.083-1.097-0.038-1.556c-0.065-0.232-0.185-0.464-0.316-0.713l-0.206-0.329c-0.057-0.106-0.228-0.288-0.336-0.428
	c-0.343-0.467-0.806-0.861-1.314-1.231c-0.517-0.353-1.065-0.692-1.632-0.952c-0.566-0.255-1.117-0.515-1.649-0.709
	c-1.062-0.4-1.995-0.696-2.655-0.9c-0.667-0.201-1.048-0.316-1.048-0.316L63.479,19.507z"/>
</svg>
