<?xml version="1.0" encoding="utf-8"?>
<!-- Generator: Adobe Illustrator 17.0.0, SVG Export Plug-In . SVG Version: 6.00 Build 0)  -->
<!DOCTYPE svg PUBLIC "-//W3C//DTD SVG 1.1//EN" "http://www.w3.org/Graphics/SVG/1.1/DTD/svg11.dtd">
<svg version="1.1" id="Layer_1" xmlns="http://www.w3.org/2000/svg" xmlns:xlink="http://www.w3.org/1999/xlink" x="0px" y="0px"
	 width="46.429px" height="58.73px" viewBox="0 0 46.429 58.73" enable-background="new 0 0 46.429 58.73" xml:space="preserve">
<path fill="none" stroke="#F22A2A" stroke-miterlimit="10" d="M6.246,4.944"/>
<path fill="none" stroke="#F22A2A" stroke-miterlimit="10" d="M23.246,55.444"/>
<polyline fill="none" stroke="#F2F2F2" stroke-miterlimit="10" points="6.579,10.73 6.579,1.23 40.579,1.23 40.579,24.73 "/>
<polyline fill="none" stroke="#F2F2F2" stroke-miterlimit="10" points="1.579,23.73 1.579,11.23 11.579,11.23 11.579,38.73 "/>
<polyline fill="none" stroke="#F2F2F2" stroke-miterlimit="10" points="45.579,36.73 45.579,24.23 35.579,24.23 35.579,58.73 "/>
<polyline fill="none" stroke="#F2F2F2" stroke-miterlimit="10" points="7.579,48.73 7.579,38.23 16.579,38.23 16.579,53.73 "/>
<rect x="31.953" y="6.023" fill="none" stroke="#F2F2F2" stroke-miterlimit="10" width="3.841" height="3.841"/>
<rect x="23.503" y="6.023" fill="none" stroke="#F2F2F2" stroke-miterlimit="10" width="3.841" height="3.841"/>
<rect x="31.953" y="14.089" fill="none" stroke="#F2F2F2" stroke-miterlimit="10" width="3.841" height="3.841"/>
<rect x="4.682" y="14.089" fill="none" stroke="#F2F2F2" stroke-miterlimit="10" width="3.841" height="3.841"/>
<rect x="4.682" y="22.155" fill="none" stroke="#F2F2F2" stroke-miterlimit="10" width="3.841" height="3.841"/>
<rect x="38.482" y="28.493" fill="none" stroke="#F2F2F2" stroke-miterlimit="10" width="3.841" height="3.841"/>
<rect x="38.482" y="36.559" fill="none" stroke="#F2F2F2" stroke-miterlimit="10" width="3.841" height="3.841"/>
<rect x="9.675" y="42.32" fill="none" stroke="#F2F2F2" stroke-miterlimit="10" width="3.841" height="3.841"/>
</svg>
