<?xml version="1.0" encoding="utf-8"?>
<!-- Generator: Adobe Illustrator 17.0.0, SVG Export Plug-In . SVG Version: 6.00 Build 0)  -->
<!DOCTYPE svg PUBLIC "-//W3C//DTD SVG 1.1//EN" "http://www.w3.org/Graphics/SVG/1.1/DTD/svg11.dtd">
<svg version="1.1" id="Layer_1" xmlns="http://www.w3.org/2000/svg" xmlns:xlink="http://www.w3.org/1999/xlink" x="0px" y="0px"
	 width="173.333px" height="173.333px" viewBox="62.167 3.5 173.333 173.333" enable-background="new 62.167 3.5 173.333 173.333"
	 xml:space="preserve">
<g transform="translate(0.000000,184.000000) scale(0.100000,-0.100000)">
	<path fill="#211915" d="M1773,1326c-55,6-60,9-79,42c-30,56-75,81-142,80c-32-1-49-3-39-5c9-3,17-8,17-13c0-4-16-3-35,3
		c-22,6-39,7-44,1c-9-9,3-220,15-261c9-31-29-67-56-53c-11,6-20,15-20,20c0,16,18,11,28-6c6-10,12-13,16-6c3,5,0,12-7,15
		c-10,4-12,18-6,59c4,29,8,114,8,188c1,129-1,140-34,234c-19,55-44,109-56,120c-21,20-21,19,1-11c13-18,21-35,18-38
		c-3-4-19,12-34,34c-36,49-107,68-144,38c-29-22-60-75-54-90c3-9-2-32-12-52c-14-30-16-52-10-130c7-92,6-95-13-95c-12,0-21-4-21-10
		c0-5-13-7-30-4c-35,7-80-2-80-17c0-6,8-8,18-5c11.636,3.723,35.623-6.058,59.955-21.432c8.998-2.886,16.061-8.19,21.272-14.852
		c20.057-15.402,37.827-33.221,45.773-48.716c18-33,46-133,44-153c-1-6-1-22,0-36l2-25l10,25c20,49-14,176-65,243l-27,35l38,6
		c21,4,46,9,56,12c5.598,2.036,9.88,2.239,12.493,0.781c11.188,6.172,24.851,8.138,38.414,5.421
		c1.337-0.268,3.387-0.894,5.827-1.714c1.631-0.214,3.243-0.458,4.783-0.799c3.728,0.831,7.722,1.305,12.024,1.305
		c0.93,0,1.795-0.099,2.698-0.14c27.772,6.226,55.07,12.923,84.123,9.122c14.42-1.887,27.557-7.598,36.797-16.951
		c7.651,2.888,12.352,9.351,17.841,21.976l13,27l-68-6c-37-4-93-9-124-13l-57-5l-9,73c-7,60-5,87,10,144c10,38,23,75,29,83
		c8,9,7,11-6,6c-29-11-17,14,17,35c65,40,132-3,186-119c23-50,25-70,29-212c3-87,8-155,13-152c5,3,9-1,9-9c0-26-13-27-37-1
		c-7.742,8.933-15.795,15.3-21.923,18.212c1.331-4.573,2.072-9.331,2.217-14.124c3.098-2.596,2.786-5.968-0.815-11.709
		c-0.229-1.307-0.637-2.565-0.959-3.847c1.653-2.526,3.068-5.2,4.237-7.994c3.676-0.216,4.715-3.744,2.861-9.025
		c1.639-7.325,1.83-15.018,0.538-22.424c2.848,1.74,5.633,3.699,7.845,5.91c9,9,12,7,10-9c0-12-3-19-5-17
		c-2.51,1.674-8.514-1.036-14.511-6.593c3.19-10.318,3.328-21.683,0.411-32.093c3.9-5.122,8.229-12.607,12.1-21.314
		c10-19,12-32,5-33c-5-1-23-4-39-8c-17.905-4.671-24.198-4.421-23.32,1.077c-2.65-0.39-5.386-0.66-8.299-0.66
		c-1.863,0-3.66,0.103-5.416,0.266c-14.573-10.341-26.451-13.008-81.965-21.683c-21-3-44-14-50-24c-11-18-12-17-25,4
		c-7,12-11,15-8,5c2-9-5-24-16-35c-17-14-20-15-16-3c4,10,0,16-12,17c-13,1-16-4-13-18c3-11-2-28-11-37c-15-17-12-20,39-45
		c31-15,59-27,63-27c5,0,6,27,4,60c-5,67-17,58,118,85c41,8,155,34,253,57l177,42v106h49c61,0,81,7,81,30
		C1860,1308,1838,1319,1773,1326z M1142,1688c-7-7-12-8-12-2c0,14,12,26,19,19C1151,1702,1148,1694,1142,1688z M1406,1197
		c3-3,4-12,1-19c-3-8-6-5-6,6C1400,1195,1403,1201,1406,1197z M1140,943c-11,1-20,5-20,9c0,4-8,5-17,2c-11-3-6,5,11,20
		c34,28,46,26,46-9C1160,947,1155,942,1140,943z M1714,1253c-5,3-9-15-8-39c2-44-2-48-43-47c-7,1-13-3-13-7c0-8-92-31-131-34
		c-13,0-27-5-31-11c-13-18-20,3-8,25s8,68-10,114c-12.576,33.236-13.012,86.479-2.831,91.202
		c-0.721,5.314-0.706,10.735,0.062,16.041c-14.306,27.081,9.098,43.91,67.769,47.758c28,1,52,5,54,7c16,16,46-3,82-52
		c30-41,38-59,30-67c-14-14-14-28,0-25c6,2,14-3,17-11C1720,1253,1719,1250,1714,1253z M1775,1278c-41-3-50,0-53,15
		c-3,14,1,18,15,13c10-3,37-7,60-8C1852,1294,1838,1281,1775,1278z"/>
	<path fill="#F22A2A" d="M948,963c-9-8-25-13-35-10c-15,3-14,6,8,15c28,11,39,30,39,65c-1,18-4,16-20-13l-19-35l6,63c4,45,3,62-6,62
		c-7,0-10-7-7-18c9-26-27-128-43-124c-21,4-81-18-81-30c0-15-13-1-16,16c-0.185,1.481,0.4,3.035,1.572,4.628
		c-3.893,1.572-7.414,3.583-10.52,6.002L756,942l-12,24c-15,28-5,103,16,128c6,9,9,20,6,25c-3.826,5.74,3.398,7.767,16.285,5.309
		c1.956,6.675,5.14,12.933,9.626,18.208c9.36,19.172,51.644,51.038,56.089,39.483c2-7,10-12,18-12c9,0,13-4,10-9c-3-5,0-11,8-14
		c11-4,12,1,7,21c-11,41-59,46-90,9c-13-15-26-25-29-22c-3,2,3,14,13,25c18,20,18,21-1,14c-15-5-14-1,6,15c14,11,30,19,35,17
		c6-2,18-7,29-12c18-7,18-6,1,19c-19,29-43,34-65,15c-7-7-4,3,6,22c33,57,78,43,109-35c14-35,14-38,0-21c-8,11-15,26-15,33
		c0,13-58,48-66,40c-3-2,6-11,20-20c21-14,54-70,70-117c2-8,5-3,5,13c1,27,21,39,21,12c0-8,4-15,10-15c15,0-18,79-55,131
		c-19,27-31,49-25,49c5,0,19-13,32-30c4.941-6.671,10.369-12.722,15.518-17.704c4.99,19.476,20.51,35.827,46.583,35.827
		c6.799,0,12.837-1.165,18.203-3.154c2.085,3.095,4.402,6.033,7.23,8.554C974.056,1346.66,945.026,1359.128,928,1357
		c-13-1-43-3-68-5s-53-10-62-19c-18-16-43-115-34-138c2-7-2-19-11-27c-44-36-66-158-44-238c11-40,93-41,103-2c7,24,55,35,63,14
		c4-10,15-13,38-9c69,12,141,34,145,45C1063,995,970,982,948,963z M730,1119c0,6,5,11,10,11c6,0,10-2,10-4c0-3-4-8-10-11
		C735,1112,730,1114,730,1119z"/>
	<path fill="#211915" d="M1776,1213c-3-8,2-13,14-13c11,0,20-6,20-14s-11-13-25-13c-28,0-42-9-31-20c10-10,67-12,60-2c-3,5,0,9,5,9
		c6,0,11,11,11,25c0,16-6,25-16,25c-8,0-13,4-10,8c3,5-1,9-9,9S1779,1221,1776,1213z"/>
	<path fill="#211915" d="M1441,1194c0-11,3-14,6-6c3,7,2,16-1,19C1443,1211,1440,1205,1441,1194z"/>
	<path fill="#211915" d="M1958,1173c7-3,16-2,19,1c4,3-2,6-13,5C1953,1179,1950,1176,1958,1173z"/>
	<path fill="#211915" d="M1891,1156c-8-10-9-16-1-21c5-3,10,1,10,9s8,17,18,19c14,4,14,5,1,6C1910,1169,1897,1164,1891,1156z"/>
	<path fill="#211915" d="M2178,1163c7-3,16-2,19,1c4,3-2,6-13,5C2173,1169,2170,1166,2178,1163z"/>
	<path fill="#211915" d="M1925,1150c-13-5-14-9-5-9c8,0,24,4,35,9c13,5,14,9,5,9C1952,1159,1936,1155,1925,1150z"/>
	<path fill="#211915" d="M2225,1147c11-9,15-19,10-28c-6-11-5-12,5-2c11,10,11,15,0,28c-7,8-17,15-23,15S2214,1154,2225,1147z"/>
	<path fill="#211915" d="M2030,1140c20-13,83-13,75,0c-3,6-25,10-48,10C2026,1150,2019,1147,2030,1140z"/>
	<path fill="#211915" d="M2180,1140c0-5,5-10,11-10c5,0,7,5,4,10c-3,6-8,10-11,10C2182,1150,2180,1146,2180,1140z"/>
	<path fill="#211915" d="M2263,925c-5-8-35-20-68-25c-85-15-93-19-75-31c22-14,88-8,95,9c3,8,11,12,19,9c7-3,19,0,25,6
		c8,8,11,8,11,0c0-39-114-61-239-45c-115,14-187,44-194,80l-5,27l18-23c10-12,26-22,37-22c15,1,13,4-9,21c-16,11-28,25-28,30
		c0,9,44,3,64-9c10-5,95-15,151-16c29-1,30,1,33,47c3,48,11,57,31,34c12-15,6-60-9-65c-5-2-10-8-10-13c0-11,67-9,99,3
		c15,5,28,5,36-2c18-15,26,11,15,47l-8,28l-2-30c-1-16-4-24-7-17c-3,7-2,29,2,49c5,27,9,33,16,22c7-11,9-10,9,5c0,12-5,16-16,12
		c-9-3-20-6-25-6c-6,0-8-3-6-7c3-5-55-7-129-5c-107,2-135,0-133-10c5-38-2-66-19-70c-27-7-42,16-42,66c0,26-5,46-12,49c-9,4-9,6-1,6
		c11,1-40,61-52,61c-4,0,0-12,10-26c9-14,16-40,15-57c-3-53-1-69,10-62c6,3,10,1,10-4c0-14-6-14-30-1c-13,7-19,6-22-3
		c-4-11-10-151-12-289c-1-37-5-58-13-58c-6,0-19-3-27-6c-12-5-15-2-10,10c4,10,13,15,20,12c8-3,14-1,14,3c0,5-7,12-16,15
		c-84,32-148-58-94-134c16-23,17-30,6-39c-7-6-16-35-19-63c-6-50-4-57,47-148c59-103,90-137,151-167c56-28,88-34,168-34
		c113,0,207,57,207,126c0,24-18,18-22-7c-2-13-8-22-13-21c-12,1-31-18-32-32c-0.349-3.26-3.42-6.48-8.616-9.588
		c-7.247-14.476-21.44-25.211-42.681-25.015c-82.686,0.764-163.828-51.25-235.944,14.645c-1.741,1.591-3.278,3.226-4.709,4.881
		c-10.776,2.753-22.141,7.906-28.05,13.077c-36,28-93,91-99,111c-4,12-22,45-40,74c-35,54-48,116-20,92c8-6,24-30,35-53
		c30-61,58-90,125-128c28.677-15.993,47.344-24.666,71.212-29.751c4.169-0.184,8.373-0.877,12.544-2.265
		c16.821-2.57,36.821-3.916,64.244-4.984c16.393-0.863,32.012-1.17,46.819-1.04c24.026,5.109,48.326,9.664,72.883,9.437
		c3.532-0.032,6.836-0.412,9.982-1.009c2.113,0.535,4.361,1.026,6.315,1.612c26,7,50,13,54,11c4-1,16,10,27,25c23,28,27,59,11,83
		c-8,13-10,12-10-3c0-11-9-31-20-47c-62-87-297-78-378,15c-28,31-30,38-27,104c2,55-1,71-12,71c-11,0-10,5,3,25c9,14,13,25,9,25
		s-1,7,6,17c12,14,12,16-1,11c-8-2-16-14-18-25c-2-12-11-23-20-26c-9-3-26-8-37-12s3,14,30,40c28,25,49,51,47,57c-3,13,21,79,28,75
		c90-52,218-76,313-57c59,11,114,36,104,47c-3,2-18-2-34-10c-68-36-246-29-338,13c-43,20-79,52-39,35c102-42,125-48,214-51
		c98-5,189,15,198,43c2,8-14,5-44-9c-43-18-60-20-155-15c-62,3-122,12-144,21c-55,24-36,30,30,11c97-29,315-10,315,27c0,4-16,1-36-7
		c-23-9-68-15-122-15c-92,0-212,17-212,30c0,4-11,11-25,14c-14,4-25,11-25,16c0,12,17,13,24,1c8-12,111-38,182-46c69-7,166,7,202,31
		c34,23,20,29-20,8c-62-33-338-15-338,21c0,12,6,11,36-1c88-37,301-26,340,17c20,23,15,24-21,5c-16-8-57-18-92-22
		c-99-10-284,18-261,41c2,2,32-3,68-12c120-28,304-7,318,35c3,10-5,9-29-4c-71-36-322-25-386,17c-17,12-22,19-12,19c8,0,20-5,26-11
		c7-7,24-13,40-15c15-1,59-7,97-13c96-14,264,9,267,36c0,5,2,23,3,41C2288,942,2277,950,2263,925z M2224,1004c10-26,7-44-7-44
		c-8,0-14,12-14,30C2203,1022,2214,1030,2224,1004z M2177,1013c9,15,13,6,12-25c-1-31-1-31-8-8C2176,994,2175,1008,2177,1013z
		 M1995,1017c8,0,15-4,15-9s9-4,19,2c34,18,42,12,39-30c-1-25-7-40-15-40c-7,0-14,6-14,13c-1,6-2,18-3,24c-2,21-21,15-26-8
		c-5-21-6-21-18,5C1976,1009,1977,1017,1995,1017z M1690,568c0,6,10,22,22,34c20,20,20,22,4,34c-16,11-16,13,1,23c24,14,42,13,21-2
		c-15-10-15-12,0-23c14-10,12-15-16-45C1704,570,1690,561,1690,568z M1747,405c-4,9-1,12,9,8c7-3,14-7,14-8
		C1770,393,1751,393,1747,405z M1790,373c0-20-3-24-11-16c-7,7-9,19-6,27C1783,408,1790,403,1790,373z M1759,490c14-1,14-2-1-11
		c-25-14-22-26,10-37c22-9,23-11,6-11c-11-1-29,5-39,13c-16,12-17,16-6,30C1736,483,1750,490,1759,490z M1725,540c-15,0-1,31,23,49
		c32,24,42,26,42,8C1790,585,1739,540,1725,540z M1855,730c9-7,13-15,11-17c-7-7-26,7-26,19C1840,738,1846,738,1855,730z M1867,832
		c17-11,12-53-6-50c-8,2-16,9-19,16c-2,8,3,10,15,6c17-5,17-5,1,9C1830,835,1838,851,1867,832z"/>
	<path fill="#211915" d="M1716,1105c-11-29-7-37,10-20c11,11,13,20,7,26C1726,1118,1721,1116,1716,1105z"/>
	<path fill="#211915" d="M1948,1113c7-3,16-2,19,1c4,3-2,6-13,5C1943,1119,1940,1116,1948,1113z"/>
	<path fill="#211915" d="M1998,1103c7-3,16-2,19,1c4,3-2,6-13,5C1993,1109,1990,1106,1998,1103z"/>
	<path fill="#211915" d="M2148,1103c6-2,18-2,25,0c6,3,1,5-13,5S2141,1106,2148,1103z"/>
	<path fill="#211915" d="M2262,1103c-6-2-9-9-6-15c4-7-5-8-27-4c-25,4-29,4-14-3c30-14,40-13,65,9C2302,1109,2293,1116,2262,1103z"
		/>
	<path fill="#211915" d="M1925,1093c11-3,25-9,30-13c6-4,19-4,30,0c16,5,14,8-14,13C1932,1101,1893,1101,1925,1093z"/>
	<path fill="#211915" d="M2055,1082l40-6l-50-7l-50-6l59,1c75,1,87,22,14,23C2020,1087,2019,1087,2055,1082z"/>
	<path fill="#211915" d="M2135,1070c-4-6,11-10,37-10c31,0,39,3,28,10C2180,1083,2143,1083,2135,1070z"/>
	<path fill="#211915" d="M1732,1045c0-16,2-22,5-12c2,9,2,23,0,30C1734,1069,1732,1062,1732,1045z"/>
	<path fill="#211915" d="M1915,1060c4-6,11-8,16-5c14,9,11,15-7,15C1916,1070,1912,1065,1915,1060z"/>
	<path fill="#211915" d="M1090,903c52-25,90-47,84-50c-6-2-53,17-104,42c-63,30-97,42-105,35c-9-7-8-38,2-127c12-109,15-203,5-203
		c-2,0-12,5-23,10c-26,14-24,30,4,31c17,1,18,2,4,6c-18,5-129-29-182-55c-45-22-85-63-85-87c0-59,20-84,99-123c42-22,109-47,149-57
		c44-10,69-21,65-28c-3-5-1-7,5-3c6,3,13,2,17-4c3-5,21-10,38-11c29,0,30-1,10-9c-31-13-111-15-153-6c-21,5-48,23-67,45
		s-32,30-32,21c0-16,39-57,80-82c33-21,91-16,199,17c47,15,103,30,125,35c49,10,201,77,353,155c197,102,111,72-117-40
		c-188-93-256-117-237-86c4,6-3,119-18,266c-2,22-7,95-11,162l-7,121l-80,36C993,966,978,957,1090,903z M1088,870c50-24,92-47,92-51
		c0-5-2-9-5-9c-11,0-205,100-205,106C970,924,973,922,1088,870z M1080,840c55-28,100-54,100-59c0-11-209,90-210,102
		C970,895,976,892,1080,840z M1184,743c-14-5-216,101-209,109c3,2,53-20,112-50C1146,771,1190,745,1184,743z M1089,769
		c107-58,106-57,99-64c-5-5-208,103-208,111C980,825,998,817,1089,769z M1086,739c85-45,118-69,98-69c-10,0-204,110-204,116
		C980,795,996,788,1086,739z M1091,704c54-31,99-61,99-66s-15-1-32,9C978,753,967,760,986,760C989,760,1037,735,1091,704z M1112,661
		c74-41,116-74,72-57c-37,14-194,110-194,119c0,5,10,3,23-5C1025,710,1070,684,1112,661z M1015,691c3-6,46-33,96-61
		c49-29,88-55,85-58s-43,17-88,43c-46,27-90,48-98,48c-9-1-17,7-17,18C991,701,1005,707,1015,691z M1102,602c41-23,82-50,89-59
		c13-15,12-15-11-3c-14,7-54,31-90,53s-70,40-77,40s-10,4-7,9C1013,653,1007,655,1102,602z M931,614c10-9,33-18,50-20
		c28-4,30-2,18,13s-12,16,5,10c11-4,53-29,94-54l74-46l-98-40c-77-30-117-40-180-44c-123-8-194,24-180,82c8,31,77,78,116,78
		c16,0,27,4,24,9c-3,4-1,8,5,8c15,0,23-18,10-22c-7-2,1-12,17-23l29-18l-19,21c-23,26-15,28,22,5c26-17,26-17,13,0c-15,19-2,24,17,5
		c7-7,12-9,12-6c0,4-15,17-32,29c-22,16-28,17-19,6c15-19,5-22-19-7c-13,9-13,11,0,20C910,633,910,633,931,614z M1194,463
		c13-79,7-132-14-143c-38-20-127-23-155-4c-14,9-25,14-25,10c0-3-12-1-27,5c-16,6-35,12-44,14c-34,7-89,35-89,45c0,7,8,9,20,5
		c11-3,20-3,20,2c0,4,15,8,33,7c17,0,37,2,42,5c6,3,15,6,22,7s36,13,65,27c30,14,66,29,81,32c15,4,30,11,33,16
		C1169,512,1188,497,1194,463z"/>
	<path fill="#211915" d="M825,580c6-10,4-12-10-6c-15,5-16,4-5-9c7-9,23-21,34-27c21-11,21-11,2,11c-22,25-11,28,16,4
		c10-9,18-12,18-7s-14,18-31,28C830,585,820,588,825,580z"/>
	<path fill="#211915" d="M922,548l-83-31l-29,28c-17,16-30,24-30,18s12-19,27-29c18-11,23-19,15-22c-8-2-25,6-40,19l-27,24l23-26
		l23-26l-22-6c-13-4-29-1-36,5s-13,7-13,4c0-11,27-36,38-36c6,0,12-3,15-7c2-5,3-3,1,3c-1,6,16,17,38,23c38,12,42,11,67-13
		c15-14,31-26,36-26s-6,13-25,29l-34,28l36,12c33,11,40,10,68-10c16-13,30-27,30-31c0-9-18,0-57,28c-37,26-26,9,12-20
		c24-19,42-25,56-21c20,7,20,7,2,21c-12,8-13,13-5,14c7,0,11,4,7,9c-11,19,13,20,30,1c10-11,23-20,29-20s0,9-14,20s-20,20-14,20
		c5,0,19-7,30-15c10-8,24-14,29-15c6,0-5,10-23,21c-45,29-32,37,15,9l38-22l-30,25c-36,31-33,31-78,12c-27-11-35-19-30-31
		c5-14,3-15-15-5c-36,19-34,30,7,41c43,11,65,30,34,29C1013,579,968,565,922,548z"/>
	<path fill="#211915" d="M750,515c7-9,15-13,17-11c7,7-7,26-19,26C742,530,742,524,750,515z"/>
	<path fill="#211915" d="M900,503c1-10,50-46,56-41c2,3-10,14-26,27C913,501,900,507,900,503z"/>
	<path fill="#211915" d="M840,483c0-10,40-36,46-30c3,2-7,12-21,21S840,487,840,483z"/>
	<path fill="#211915" d="M810,471c0-9,30-24,36-18c2,1-6,8-16,15C819,475,810,476,810,471z"/>
	<path fill="#211915" d="M2075,910c11-5,16-9,10-10c-22-4-102,0-140,6l-40,6l28-22c16-13,36-20,47-17s20,1,20-4s10-9,21-9
		c17,0,19,3,10,14c-10,12-9,13,7,9c22-5,62,12,62,27c0,6-10,10-22,9C2056,919,2056,918,2075,910z"/>
	<path fill="#211915" d="M2065,871c-3-5-1-12,5-16c12-7,30,2,30,16C2100,883,2073,883,2065,871z"/>
	<path fill="#211915" d="M1722,774c-2-39,2-55,16-65c15-12,16-12,5,1c-6,9-13,38-16,65l-3,50L1722,774z"/>
	<path fill="#211915" d="M2297,786c-19-15-24-31-5-20c6,4,4-3-5-17c-9-13-17-36-17-51v-27l25,25c19,19,24,31,19,51c-4,15-2,28,6,33
		c7,4,8,10,3,13C2319,796,2307,793,2297,786z"/>
	<path fill="#211915" d="M1850,626c40-38,205-66,302-52c41,6,115,42,106,51c-2,3-22-5-44-16c-34-18-53-20-154-17c-93,3-124,8-161,26
		C1847,643,1829,646,1850,626z"/>
	<path fill="#211915" d="M1849,596c7-8,38-25,69-37c65-25,226-31,276-10c16,6,31,9,34,6c3-2-12-12-33-21c-70-29-250-17-310,20
		c-11,7-28,15-38,19c-29,11-9-11,26-30c84-43,227-56,307-28c53,19,63,13,18-12c-35-19-171-25-235-11c-18,4-33,4-33-1
		c0-25,201-29,257-6c45,19,54,13,17-11c-35-24-215-34-240-13c-13,11-14,9-8-17c4-16,12-33,18-37c21-15,179-3,219,17
		c20,10,37,22,37,27s-10,3-23-5c-36-24-124-39-183-31c-83,10-64,20,38,20c75,0,101,4,133,21s40,26,40,50c0,16,4,35,8,42
		c5,7,3,12-4,12c-8,0-8,4,1,15c16,19,11,19-29-1c-72-36-251-26-335,17C1847,606,1840,608,1849,596z"/>
	<path fill="#211915" d="M1851,525c15-15,34-25,43-23c10,2,1,11-27,27l-42,23L1851,525z"/>
	<path fill="#211915" d="M1835,500c3-5,11-10,16-10c6,0,7,5,4,10c-3,6-11,10-16,10C1833,510,1832,506,1835,500z"/>
	<path fill="#211915" d="M1820,486c0-2,8-10,18-17c15-13,16-12,3,4S1820,494,1820,486z"/>
	<path fill="#211915" d="M1863,474c-16-43,45-109,68-73c5,8,8,21,8,29c0,10-2,11-6,3c-7-20-41-15-53,6c-12,23-13,34-2,27
		c4-2,14-1,21,3c9,6,7,10-9,14C1877,486,1867,483,1863,474z"/>
	<path fill="#211915" d="M1907,461c-17-6-17-9-4-19c12-10,16-9,20,8c3,11,4,20,4,19C1926,469,1917,465,1907,461z"/>
	<path fill="#211915" d="M1828,443c9-16,9-22,0-25c-16-6,42-45,93-63c67-24,167-29,224-11s74,13,24-8c-100-41-236-24-329,41l-25,17
		l18-21c43-50,180-84,279-69c48,7,121,46,100,54c-10,3-10,8,3,22s6,13-31-6c-82-42-242-30-323,22c-16,11-20,19-12,23c8,5,5,13-10,27
		C1817,465,1817,465,1828,443z"/>
	<path fill="#211915" d="M2190,407c-30-19-50-22-142-22c-64,0-100-3-91-8c8-5,52-9,96-9c84,0,142,17,167,46
		C2236,434,2233,433,2190,407z"/>
	<path fill="#F2F2F2" d="M1261,362c-13-25,2-38,19-16c9,10,10,18,3,25C1275,379,1269,376,1261,362z"/>
	<path fill="#211915" d="M1830,340c0-5,5-10,11-10c5,0,7,5,4,10c-3,6-8,10-11,10C1832,350,1830,346,1830,340z"/>
	<path fill="#211915" d="M2168,304c-54-29-168-29-263,1c-11,3-6-2,10-12c23-13,51-17,120-17c100,0,135,4,135,16c0,4,6,8,14,8
		s18,5,21,10C2214,324,2200,322,2168,304z"/>
	<path fill="#211915" d="M1925,259c11-7,58-14,105-15l85-2l-85,8c-47,4-94,11-105,15C1905,272,1905,272,1925,259z"/>
</g>
</svg>
