<?xml version="1.0" encoding="utf-8"?>
<!-- Generator: Adobe Illustrator 18.0.0, SVG Export Plug-In . SVG Version: 6.00 Build 0)  -->
<!DOCTYPE svg PUBLIC "-//W3C//DTD SVG 1.1//EN" "http://www.w3.org/Graphics/SVG/1.1/DTD/svg11.dtd">
<svg version="1.1" id="Layer_1" xmlns="http://www.w3.org/2000/svg" xmlns:xlink="http://www.w3.org/1999/xlink" x="0px" y="0px"
	 viewBox="0 0 50 19.8" enable-background="new 0 0 50 19.8" xml:space="preserve">
<path fill="#221A15" d="M21.4,10.8c-0.2-0.2-0.6-0.6-1.3-0.6c-0.9,0-1.6,0.7-1.6,1.7c0,0.9,0.7,1.7,1.6,1.7c0.5,0,1-0.3,1.3-0.7
	c0.1,0.1,1,1,1.1,1.1c-0.4,0.4-1.2,1.1-2.4,1.1c-1.7,0-3.2-1.3-3.2-3.2s1.5-3.2,3.2-3.2c1.1,0,1.9,0.6,2.3,1
	C22.4,9.8,21.5,10.7,21.4,10.8"/>
<path fill="#221A15" d="M22.5,11.9c0-1.8,1.4-3.2,3.2-3.2c1.8,0,3.2,1.4,3.2,3.2c0,1.7-1.4,3.2-3.2,3.2C23.9,15,22.5,13.6,22.5,11.9
	 M24,11.9c0,0.9,0.7,1.7,1.6,1.7c0.9,0,1.6-0.7,1.6-1.7s-0.7-1.7-1.6-1.7C24.7,10.2,24,10.9,24,11.9"/>
<polygon fill="#221A15" points="29.4,14.9 29.4,8.8 34.2,8.8 34.2,10.3 30.9,10.3 30.9,11.2 33.5,11.2 33.5,12.7 30.9,12.7 
	30.9,14.9 "/>
<polygon fill="#221A15" points="34.9,14.9 34.9,8.8 39.7,8.8 39.7,10.3 36.4,10.3 36.4,11.2 39,11.2 39,12.7 36.4,12.7 36.4,14.9 
	"/>
<polygon fill="#221A15" points="40.4,14.9 40.4,8.8 44.6,8.8 44.6,10.3 41.9,10.3 41.9,11.1 43.8,11.1 43.8,12.6 41.9,12.6 
	41.9,13.4 44.6,13.4 44.6,14.9 "/>
<polygon fill="#221A15" points="45.4,14.9 45.4,8.8 49.6,8.8 49.6,10.3 46.9,10.3 46.9,11.1 48.8,11.1 48.8,12.6 46.9,12.6 
	46.9,13.4 49.6,13.4 49.6,14.9 "/>
<path fill="#EE302C" d="M16.9,4.4c0-1.8,1.5-3.3,3.3-3.3s3.3,1.5,3.3,3.3c0,1.8-1.5,3.3-3.3,3.3C18.4,7.6,16.9,6.2,16.9,4.4
	 M18.5,4.4c0,1,0.7,1.7,1.7,1.7s1.7-0.7,1.7-1.7c0-1-0.7-1.7-1.7-1.7C19.2,2.6,18.5,3.4,18.5,4.4"/>
<polygon fill="#EE302C" points="24.4,7.5 24.4,1.2 29.3,1.2 29.3,2.8 26,2.8 26,3.7 28.6,3.7 28.6,5.2 26,5.2 26,7.5 "/>
<polygon fill="#EE302C" points="30,7.5 30,1.2 35,1.2 35,2.8 31.6,2.8 31.6,3.7 34.2,3.7 34.2,5.2 31.6,5.2 31.6,7.5 "/>
<rect x="35.7" y="3.7" fill="#EE302C" width="1.6" height="3.9"/>
<path fill="#EE302C" d="M42.8,3.3c-0.2-0.2-0.6-0.6-1.3-0.6c-0.9,0-1.7,0.8-1.7,1.7c0,0.9,0.7,1.7,1.7,1.7c0.5,0,1-0.3,1.3-0.7
	c0.1,0.1,1,1,1.1,1.1c-0.4,0.5-1.3,1.2-2.4,1.2c-1.8,0-3.3-1.4-3.3-3.3c0-1.9,1.5-3.3,3.3-3.3c1.2,0,2,0.6,2.4,1.1
	C43.8,2.3,42.9,3.2,42.8,3.3"/>
<polygon fill="#EE302C" points="44.7,7.5 44.7,1.2 49.6,1.2 49.6,2.8 46.2,2.8 46.2,3.6 48.8,3.6 48.8,5.2 46.2,5.2 46.2,6 49.6,6 
	49.6,7.5 "/>
<path fill="#221A15" d="M18.9,18.6h-7.5c-3.9-0.3-6.7-1.2-7.4-2.3h22.4C25.7,17.4,22.8,18.2,18.9,18.6"/>
<path fill="#221A15" d="M3.6,1.2c0,0.3,0.1,0.5,0.1,0.8C3.4,2,3.2,2,3,2C1.1,2-0.3,3.4-0.3,5.2C-0.3,7,1.1,8.5,3,8.5
	c1,0,1.9-0.4,2.5-1.1c1.6,3.3,4.1,6,7.1,8h3.1V1.2H3.6z M3,7C2,7,1.3,6.2,1.3,5.2c0-1,0.7-1.7,1.7-1.7c0.4,0,0.9,0.2,1.2,0.5
	c0.1,0.5,0.3,1,0.5,1.5C4.5,6.3,3.8,7,3,7"/>
<path fill="#221A15" d="M28.5,16.8c0.1,0.1,0.1,0.3,0.1,0.4c0,0-0.1,0.1-0.1,0c-0.1-0.2-0.2-0.3-0.4-0.3c-0.2,0-0.3,0.1-0.3,0.3
	s0.2,0.3,0.4,0.4c0.2,0.1,0.5,0.3,0.5,0.6c0,0.4-0.3,0.5-0.7,0.5c-0.2,0-0.4-0.1-0.5-0.1c0-0.1-0.1-0.3-0.1-0.5c0,0,0.1,0,0.1,0
	c0.1,0.3,0.2,0.5,0.5,0.5c0.2,0,0.3-0.1,0.3-0.3c0-0.2-0.2-0.3-0.4-0.4c-0.3-0.2-0.5-0.3-0.5-0.6c0-0.3,0.3-0.5,0.6-0.5
	C28.2,16.7,28.4,16.7,28.5,16.8"/>
<path fill="#221A15" d="M31.6,17.7c0,0.6-0.4,1-1,1c-0.5,0-1-0.4-1-1c0-0.6,0.4-1,1-1C31.2,16.7,31.6,17.1,31.6,17.7 M30.6,16.8
	c-0.3,0-0.5,0.3-0.5,0.8c0,0.4,0.2,0.9,0.6,0.9s0.5-0.4,0.5-0.8C31.2,17.3,31,16.8,30.6,16.8"/>
<path fill="#221A15" d="M33.3,18.1c0,0.3,0,0.4,0.2,0.4l0.1,0c0,0,0,0.1,0,0.1c-0.2,0-0.3,0-0.4,0s-0.3,0-0.4,0c0,0-0.1-0.1,0-0.1
	l0.1,0c0.2,0,0.2-0.1,0.2-0.4v-1.7c0-0.3,0-0.3-0.2-0.4l-0.1,0c0,0,0-0.1,0-0.1c0.1,0,0.3-0.1,0.5-0.2c0,0,0,0,0.1,0
	c0,0.1,0,0.4,0,0.6C33.3,16.2,33.3,18.1,33.3,18.1z"/>
<path fill="#221A15" d="M35.2,17.9c0,0.3,0.1,0.5,0.4,0.5c0.1,0,0.3-0.1,0.4-0.1c0.1-0.1,0.1-0.1,0.1-0.3v-0.8c0-0.3,0-0.3-0.2-0.4
	l-0.1,0c0,0,0-0.1,0-0.1c0.2,0,0.4,0,0.6-0.1c0,0,0,0,0.1,0c0,0.1,0,0.2,0,0.4v0.8c0,0.4,0,0.5,0.2,0.5c0.1,0,0.1,0,0.2,0
	c0,0,0,0.1,0,0.1c-0.2,0-0.4,0.1-0.6,0.2c0,0-0.1,0-0.1,0v-0.2c0-0.1,0-0.1-0.1-0.1c-0.1,0.1-0.4,0.2-0.7,0.2
	c-0.4,0-0.6-0.2-0.6-0.6v-0.8c0-0.3,0-0.3-0.1-0.4l-0.1,0c0,0,0-0.1,0-0.1c0.2,0,0.4-0.1,0.5-0.1c0,0,0.1,0,0.1,0c0,0.1,0,0.2,0,0.4
	C35.2,17.1,35.2,17.9,35.2,17.9z"/>
<path fill="#221A15" d="M38.5,17c-0.1,0-0.1,0-0.1,0.1v0.9c0,0.3,0,0.5,0.3,0.5c0.1,0,0.1,0,0.1,0s0.1-0.1,0.1-0.1
	c0,0,0.1,0.1,0.1,0.1c-0.1,0.1-0.3,0.2-0.5,0.2c-0.4,0-0.5-0.2-0.5-0.5v-1.1c0-0.1,0-0.1-0.1-0.1h-0.1c0,0,0-0.1,0-0.1
	c0.1-0.1,0.3-0.1,0.3-0.2c0.1-0.1,0.2-0.2,0.2-0.3c0,0,0.1,0,0.1,0v0.2c0,0.1,0,0.1,0.1,0.1H39c0.1,0.1,0.1,0.2,0,0.2L38.5,17
	L38.5,17L38.5,17z"/>
<path fill="#221A15" d="M40.3,17.3c0-0.2,0-0.2-0.1-0.3l-0.1,0c0,0,0-0.1,0-0.1c0.1,0,0.4-0.2,0.5-0.2c0,0,0.1,0,0.1,0
	c0,0.2,0,0.4,0,0.6v0.8c0,0.3,0,0.4,0.2,0.4l0.1,0c0,0,0,0.1,0,0.1c-0.1,0-0.3,0-0.4,0c-0.2,0-0.3,0-0.4,0c0,0-0.1-0.1,0-0.1l0.1,0
	c0.2,0,0.2-0.1,0.2-0.4C40.3,18.1,40.3,17.3,40.3,17.3z M40.7,16.1c0,0.2-0.1,0.2-0.2,0.2c-0.2,0-0.2-0.1-0.2-0.2
	c0-0.2,0.1-0.3,0.3-0.3C40.6,15.9,40.7,16,40.7,16.1"/>
<path fill="#221A15" d="M44,17.7c0,0.6-0.4,1-1,1c-0.5,0-1-0.4-1-1c0-0.6,0.4-1,1-1C43.5,16.7,44,17.1,44,17.7 M43,16.8
	c-0.3,0-0.5,0.3-0.5,0.8c0,0.4,0.2,0.9,0.6,0.9s0.5-0.4,0.5-0.8C43.6,17.3,43.4,16.8,43,16.8"/>
<path fill="#221A15" d="M45.4,17.3c0-0.2,0-0.2-0.1-0.3l-0.1,0c0,0,0-0.1,0-0.1c0.1,0,0.4-0.2,0.5-0.2c0,0,0.1,0,0.1,0
	c0,0.1,0,0.2,0,0.2c0,0,0,0.1,0.1,0.1c0.2-0.1,0.4-0.2,0.7-0.2c0.4,0,0.6,0.3,0.6,0.6v0.8c0,0.3,0,0.4,0.2,0.4l0.1,0
	c0,0,0,0.1,0,0.1c-0.1,0-0.3,0-0.4,0s-0.3,0-0.4,0c0,0-0.1-0.1,0-0.1l0.1,0c0.2,0,0.2-0.1,0.2-0.4v-0.7c0-0.3-0.1-0.5-0.4-0.5
	c-0.2,0-0.3,0.1-0.4,0.2s-0.1,0.2-0.1,0.3v0.7c0,0.3,0,0.4,0.2,0.4l0.1,0c0,0,0,0.1,0,0.1c-0.1,0-0.3,0-0.4,0s-0.3,0-0.4,0
	c0,0-0.1-0.1,0-0.1l0.1,0c0.2,0,0.2-0.1,0.2-0.4L45.4,17.3C45.4,17.3,45.4,17.3,45.4,17.3z"/>
<path fill="#221A15" d="M49.4,16.8c0.1,0.1,0.1,0.3,0.1,0.4c0,0-0.1,0.1-0.1,0c-0.1-0.2-0.2-0.3-0.4-0.3c-0.2,0-0.3,0.1-0.3,0.3
	s0.2,0.3,0.4,0.4c0.2,0.1,0.5,0.3,0.5,0.6c0,0.4-0.3,0.5-0.7,0.5c-0.2,0-0.4-0.1-0.5-0.1c0-0.1-0.1-0.3-0.1-0.5c0,0,0.1,0,0.1,0
	c0.1,0.3,0.2,0.5,0.5,0.5c0.2,0,0.3-0.1,0.3-0.3c0-0.2-0.2-0.3-0.4-0.4c-0.3-0.2-0.5-0.3-0.5-0.6c0-0.3,0.3-0.5,0.6-0.5
	C49.2,16.7,49.4,16.7,49.4,16.8"/>
<rect x="35.7" y="1.2" fill="#221A15" width="1.6" height="1.6"/>
</svg>
