<?xml version="1.0" encoding="utf-8"?>
<!-- Generator: Adobe Illustrator 17.0.0, SVG Export Plug-In . SVG Version: 6.00 Build 0)  -->
<!DOCTYPE svg PUBLIC "-//W3C//DTD SVG 1.1//EN" "http://www.w3.org/Graphics/SVG/1.1/DTD/svg11.dtd">
<svg version="1.1" id="Layer_1" xmlns="http://www.w3.org/2000/svg" xmlns:xlink="http://www.w3.org/1999/xlink" x="0px" y="0px"
	 width="150px" height="301px" viewBox="0 0 150 301" enable-background="new 0 0 150 301" xml:space="preserve">
<text transform="matrix(1 0 0 1 48.437 139.4033)" fill="#FFFFFF" font-family="'TypefaceSix'" font-size="12">ONE SOLUTION</text>
<polygon fill="#F22A2A" points="-0.25,136.337 149.75,70.499 150,151 -0.25,151 "/>
<text transform="matrix(1 0 0 1 41.187 132.4033)" fill="#FFFFFF" font-family="'TypefaceSix'" font-size="12">50+ EMPLOYEES</text>
<text transform="matrix(1 0 0 1 6.5 174.1665)" font-family="'FuturaBT-MediumCondensed'" font-size="17">Save time. Gain control.</text>
<text transform="matrix(1 0 0 1 6.5 194.5665)" font-family="'FuturaBT-MediumCondensed'" font-size="17">Simplify your coffee </text>
<text transform="matrix(1 0 0 1 6.5 214.9665)" font-family="'FuturaBT-MediumCondensed'" font-size="17">solution. </text>
<polygon fill="#211915" points="-0.25,294.337 149.75,228.499 150,309 -0.25,309 "/>
<text transform="matrix(1 0 0 1 41.187 288.4033)" fill="#FFFFFF" font-family="'TypefaceSix'" font-size="12">ONE SOLUTION</text>
<polygon opacity="0.9" fill="#F22A2A" enable-background="new    " points="18.523,301 -0.25,251 -0.25,301 "/>
<g>
	<polyline fill="none" stroke="#000000" stroke-width="2" stroke-miterlimit="10" points="63.5,83.5 63.5,44.5 100.5,44.5 
		100.5,68.5 	"/>
	<polyline fill="none" stroke="#000000" stroke-width="2" stroke-miterlimit="10" points="58.5,91.5 58.5,62.5 39.5,62.5 39.5,80.5 
			"/>
	<polyline fill="none" stroke="#000000" stroke-width="2" stroke-miterlimit="10" points="29.5,69.5 29.5,52.5 48.5,52.5 48.5,63.5 
			"/>
	<rect x="45.708" y="66.564" fill="none" stroke="#000000" stroke-width="2" stroke-miterlimit="10" width="8.946" height="8.946"/>
	<g>
		
			<rect x="69.981" y="49.246" fill="none" stroke="#000000" stroke-width="2" stroke-miterlimit="10" width="8.946" height="8.946"/>
		<rect x="85.82" y="49.246" fill="none" stroke="#000000" stroke-width="2" stroke-miterlimit="10" width="8.946" height="8.946"/>
	</g>
	<rect x="69.981" y="64.871" fill="none" stroke="#000000" stroke-width="2" stroke-miterlimit="10" width="8.946" height="8.946"/>
	<polyline fill="none" stroke="#000000" stroke-width="2" stroke-miterlimit="10" points="94.5,44.5 94.5,9.5 38.5,9.5 38.5,51.5 	
		"/>
	<g>
		
			<rect x="46.857" y="17.345" fill="none" stroke="#000000" stroke-width="2" stroke-miterlimit="10" width="8.946" height="8.946"/>
		
			<rect x="62.697" y="17.345" fill="none" stroke="#000000" stroke-width="2" stroke-miterlimit="10" width="8.946" height="8.946"/>
	</g>
	<rect x="46.857" y="32.97" fill="none" stroke="#000000" stroke-width="2" stroke-miterlimit="10" width="8.946" height="8.946"/>
	<rect x="79.884" y="17.345" fill="none" stroke="#000000" stroke-width="2" stroke-miterlimit="10" width="8.946" height="8.946"/>
</g>
<polygon opacity="0.9" fill="#211915" enable-background="new    " points="18.773,151 0,101 0,151 "/>
</svg>
