<?xml version="1.0" encoding="utf-8"?>
<!-- Generator: Adobe Illustrator 17.0.0, SVG Export Plug-In . SVG Version: 6.00 Build 0)  -->
<!DOCTYPE svg PUBLIC "-//W3C//DTD SVG 1.1//EN" "http://www.w3.org/Graphics/SVG/1.1/DTD/svg11.dtd">
<svg version="1.1" id="Layer_1" xmlns="http://www.w3.org/2000/svg" xmlns:xlink="http://www.w3.org/1999/xlink" x="0px" y="0px"
	 width="150px" height="301px" viewBox="0 0 150 301" enable-background="new 0 0 150 301" xml:space="preserve">
<text transform="matrix(1 0 0 1 48.437 139.4033)" fill="#FFFFFF" font-family="'TypefaceSix'" font-size="12">ONE SOLUTION</text>
<polygon fill="#F22A2A" points="-0.25,136.337 149.75,70.499 150,151 -0.25,151 "/>
<polygon opacity="0.9" fill="#211915" enable-background="new    " points="18.523,151 -0.25,101 -0.25,151 "/>
<text transform="matrix(1 0 0 1 41.187 132.4033)" fill="#FFFFFF" font-family="'TypefaceSix'" font-size="12">1-19 EMPLOYEES</text>
<text transform="matrix(1 0 0 1 6.5 174.1665)" font-family="'FuturaBT-MediumCondensed'" font-size="17">Our small office solution </text>
<text transform="matrix(1 0 0 1 6.5 194.5665)" font-family="'FuturaBT-MediumCondensed'" font-size="17">helps you create a corner </text>
<text transform="matrix(1 0 0 1 6.5 214.9665)" font-family="'FuturaBT-MediumCondensed'" font-size="17">that helps and employees.</text>
<polygon fill="#211915" points="-0.25,294.337 149.75,228.499 150,309 -0.25,309 "/>
<text transform="matrix(1 0 0 1 41.187 288.4033)" fill="#FFFFFF" font-family="'TypefaceSix'" font-size="12">ONE SOLUTION</text>
<polyline fill="none" stroke="#000000" stroke-width="2" stroke-miterlimit="10" points="87.563,75.5 87.563,46.5 68.563,46.5 
	68.563,64.5 "/>
<polyline fill="none" stroke="#000000" stroke-width="2" stroke-miterlimit="10" points="58.563,53.5 58.563,36.5 77.563,36.5 
	77.563,47.5 "/>
<rect x="74.771" y="50.564" fill="none" stroke="#000000" stroke-width="2" stroke-miterlimit="10" width="8.946" height="8.946"/>
<polygon opacity="0.9" fill="#F22A2A" enable-background="new    " points="18.773,300 0,250 0,300 "/>
</svg>
