<?xml version="1.0" encoding="utf-8"?>
<!-- Generator: Adobe Illustrator 17.0.0, SVG Export Plug-In . SVG Version: 6.00 Build 0)  -->
<!DOCTYPE svg PUBLIC "-//W3C//DTD SVG 1.1//EN" "http://www.w3.org/Graphics/SVG/1.1/DTD/svg11.dtd">
<svg version="1.1" id="Layer_1" xmlns="http://www.w3.org/2000/svg" xmlns:xlink="http://www.w3.org/1999/xlink" x="0px" y="0px"
	 width="50.167px" height="49.167px" viewBox="0 0 50.167 49.167" enable-background="new 0 0 50.167 49.167" xml:space="preserve">
<path fill="#211915" d="M-4.825,56.587"/>
<path fill="none" stroke="#211915" stroke-width="2" stroke-miterlimit="10" d="M-4.825,56.587"/>
<path fill="#211915" d="M4.833,50.123"/>
<path fill="none" stroke="#211915" stroke-miterlimit="10" d="M4.833,50.123"/>
<path fill="#FFF" d="M39.5,29.289c0,7.546-4.539,14.033-11.036,16.878l-16.006-0.294C6.76,42.742,2.667,36.25,2.667,29.289
	c0-10.172,8.245-18.417,18.416-18.417C31.255,10.872,39.5,19.117,39.5,29.289"/>
<path fill="none" stroke="#211915" stroke-width="2" stroke-miterlimit="10" d="M39.5,29.289c0,7.546-4.539,14.033-11.036,16.878
	l-16.006-0.294C6.76,42.742,2.667,36.25,2.667,29.289c0-10.172,8.245-18.417,18.416-18.417C31.255,10.872,39.5,19.117,39.5,29.289z"
	/>
<polygon fill="#211915" points="9,2.373 31.667,5.873 31.667,13.873 12.583,12.873 "/>
<polygon fill="none" stroke="#211915" stroke-width="2" stroke-miterlimit="10" points="9,2.373 31.667,5.873 31.667,13.873 
	12.583,12.873 "/>
<path fill="#211915" d="M39.5,28.924c0,8-4.539,14.215-11.036,17.061l-16.006-0.386c-5.698-3.131-9.791-9.675-9.791-16.675H39.5z"/>
<path fill="none" stroke="#211915" stroke-width="2" stroke-miterlimit="10" d="M39.5,28.924c0,8-4.539,14.215-11.036,17.061
	l-16.006-0.386c-5.698-3.131-9.791-9.675-9.791-16.675H39.5z"/>
<polyline fill="none" stroke="#211915" stroke-width="2" stroke-miterlimit="10" points="31.667,9.924 38.333,9.924 46.708,19.149 
	48.125,28.911 "/>
</svg>
