<?xml version="1.0" encoding="utf-8"?>
<!-- Generator: Adobe Illustrator 17.0.0, SVG Export Plug-In . SVG Version: 6.00 Build 0)  -->
<!DOCTYPE svg PUBLIC "-//W3C//DTD SVG 1.1//EN" "http://www.w3.org/Graphics/SVG/1.1/DTD/svg11.dtd">
<svg version="1.1" id="Layer_1" xmlns="http://www.w3.org/2000/svg" xmlns:xlink="http://www.w3.org/1999/xlink" x="0px" y="0px"
	 width="300px" height="187px" viewBox="0 0 300 187" enable-background="new 0 0 300 187" xml:space="preserve">
<g transform="translate(0.000000,187.000000) scale(0.100000,-0.100000)">
	<path d="M559,1794c-20-8-41-26-48-40c-10-23-8-29,20-55c40-37,60-37,104,2c41,36,46,70,13,93C621,1813,606,1813,559,1794z
		 M639,1772c7-14,6-22-7-33c-18-15-75-19-88-6c-4,4-2,7,4,7c7,0,12,5,12,11c0,16,31,38,52,39C622,1790,634,1782,639,1772z"/>
	<path d="M905,1796c-16-7-39-23-50-35c-16-19-17-25-6-43c17-28,7-34-34-19c-23,8-40,9-53,2c-10-5-24-6-31-2c-7,5-21,6-31,4
		c-23-6-66-52-74-79c-8-26,16-54,45-54c25,0,24-16-1-30c-11-6-20-18-20-28c0-13-2-14-9-4c-4,7-6,24-3,37c3,19-1,25-22,31
		c-20,5-35-1-63-22l-36-28l24-10c32-13,32-13,24-26c-4-7-16-4-35,10c-15,11-39,20-53,20c-33,0-82-42-96-81c-9-27-7-33,14-55
		c37-37,79-32,126,15c38,38,39,38,56,18c17-19,17-19-3-13c-39,12-81-64-62-114c9-25,9-26-47-65c-20-13-20-13,3-12c12,1,22,4,22,8
		s9,5,20,2c12-3,22,1,26,11c3,9,11,13,17,9s7-1,3,6c-6,9-13,8-27-5c-10-9-19-12-19-6s10,18,21,26c20,13,25,12,59-10
		c39-26,58-25,94,5c18,15,19,15,13-1c-4-11,0-19,14-23c23-7,26-43,4-51c-9-4-14-14-13-22c2-10-11-24-34-36c-39-22-48-20-51,11
		c-1,15-6,19-20,15c-15-4-18,0-15,14c2,11,11,18,22,17c9,0,15,2,12,5s0,12,6,21c10,13,10,14-2,4c-19-18-33-16-26,3c4,10,1,14-6,12
		c-7-3-14-10-14-16c-1-7-2-16-3-22c-2-14-44-12-60,3c-12,10-13,9-7-7c5-15,4-17-8-7c-11,9-15,9-18-1c-4-10-8-11-20-1c-8,7-18,9-23,5
		c-12-12,6,42,20,58c26,30,28,67,5,90c-12,12-25,18-28,14c-4-3-1-9,6-11c14-6,16-49,2-58c-6-4-8-10-5-15c3-4-5-6-17-3
		c-22,5-22,5-4-9c26-21,8-28-30-12c-26,11-31,17-26,39c3,18,9,24,20,20c13-5,13-3,1,12c-8,9-9,14-4,11c6-3,18,2,28,12
		c16,16,16,18,2,24c-18,7-45-5-64-28c-8-9-13-38-13-66c0-40-4-50-17-50c-27,0-61-29-61-52c0-49,58-107,98-99c10,2,12-4,6-21
		c-13-38-7-71,16-90c21-17,21-18,3-18c-45,0-81-68-51-98c23-23,112-8,151,26c21,19,22,55,2,72c-13,11-14,10-10-1c6-15-74-49-115-49
		c-18,0-20,3-10,14c6,8,24,16,38,18c16,2,27,9,27,18c0,8,9,15,20,15c22,0,38,27,29,50c-9,24,6,17,29-12c16-20,21-41,22-82
		c0-46,4-57,21-66c16-8,19-14,11-27c-10-14-14-14-41-1c-23,11-38,12-58,4c-53-20-92-151-56-187c8-9,33-18,55-21c35-5,42-2,66,27
		c15,17,27,43,27,58v25l23-20c36-33,66-45,98-38c30,7,54,36,41,50c-4,5-1,5,6,1c6-4,12-14,12-23c0-21,58-73,82-73c19,0,80,36,86,52
		c2,4,9,8,16,8c17,0,56,42,56,61c1,10,3,9,11-3c5-10,22-18,36-18h26l-23-25c-13-14-19-25-13-25s16,7,23,15c14,17,150,101,220,135
		c25,12,69,38,98,58c56,38,63,56,38,104c-14,26-14,26,17,25c18,0,40,3,51,8c16,7,17,6,7-13c-15-27-14-28,11-52l22-20h-26
		c-13,0-33-10-44-22c-19-21-19-21,1-13c64,25,93,34,114,35c14,0,38,15,57,34c32,33,34,33,40,13c4-12,2-23-5-25c-12-4-15-32-3-32
		c4,0,8-21,9-46s7-52,13-59c10-12,9-16-3-21c-19-7-40,4-32,17c4,5,0,9-8,9c-15,0-27,20-27,46c0,8,9,14,21,14c20,0,20,1,3,30
		c-18,30-28,31-30,2c-3-47-5-53-15-47c-6,4-8,13-5,21c9,23-8,15-28-14c-11-15-13-21-6-15c17,16,34,17,25,2c-4-6,1-17,11-25
		c18-14,18-14,0-7c-16,5-18,3-13-11c4-10,7-24,7-32c0-21,18-17,25,7l7,21l21-20c36-34,117-6,117,40c0,24,3,23,38-11
		c51-51,215-87,298-65c27,7,60,13,74,14c17,0,30,10,42,30c19,34,17,36-15,15c-12-8-51-22-87-31c-117-30-249,0-327,73
		c-32,30-33,30-40,9s-8-28-12-56c-3-28-28,34-35,88c-7,52-6,53,14,42c15-8,19-17,15-31c-4-11-2-19,5-19c6,0,8,5,4,12c-5,8-2,9,10,5
		c14-6,15-4,5,14c-6,12-20,24-30,26c-25,7-49,63-51,122c-1,36-2,39-5,14c-4-32-5-32-28-17c-20,13-30,14-59,4c-42-14-53-27-36-43
		c10-9,11-9,6,0c-9,17,31,36,61,28c19-4,24-11,20-25c-3-11-1-18,3-17c8,2,10-3,10-23c0-5-11-10-25-10s-25-5-25-11s-6-9-14-6
		s-17,1-19-6c-9-24-36,28-37,71c0,40-2,43-22,36c-13-3-27-10-33-14c-14-10-56-20-51-11c3,4-4,12-15,19c-15,10-19,10-19,0
		c0-9-16-13-45-13c-25,0-45,3-45,7c0,5-5,8-11,8c-5,0-7-5-3-11c4-7-2-9-17-7c-16,2-25,11-27,26c-5,30-22,18-22-16v-27l-24,30
		c-23,28-23,31-8,62c9,18,19,33,24,33c12,0,10,48-2,55c-16,10-12,45,5,45c21,0,65-48,65-71s12-24,49-4c24,12,31,12,47,0
		c19-14,69-10,90,7c14,10,27-32,18-55c-8-21,57-51,91-43c14,4,31,18,37,32c10,22,9,32-9,66l-22,39l30,6c16,3,29,10,29,15
		c0,11-62,38-90,38c-25,0-25,5,1,31c38,38-1,94-72,105c-27,5-39,12-39,23c0,21-37,81-50,81c-5,0-1-15,10-33c20-34,19-41-17-70
		c-21-18-22-18-62,18c-23,21-41,45-41,54c0,12,5,10,23-9c12-14,19-21,16-15c-3,5-6,22-7,36c-2,28,3,29,73,30c62,0,104,17,111,45
		c4,14,1,31-6,39c-14,17-95,21-105,4c-5-7-11-5-18,5c-7,8-21,16-32,19s6,3,37,2c65-4,84,11,65,52c-15,34-67,48-110,29
		c-44-18-58-42-45-75c11-31,25-40,58-41c15-1,34-13,48-31c29-36,17-38-20-2c-30,29-50,24-30-7c16-27,15-32-6-25c-28,8-72-31-72-63
		c0-20,12-37,46-64c26-21,50-38,54-38s10-9,13-21c4-14,10-18,19-13c11,6,11,5,0-8c-9-12-10-18-2-23c6-4,8-14,5-24c-10-24-14-51-9-51
		c11,0,33,29,25,32c-19,6,15,36,49,43l35,8l-25-23c-14-12-19-19-12-15c25,13,11-2-33-35c-49-37-53-51-8-26c38,21,73,52,73,65
		c0,6,7,11,15,11c24,0,17-37-12-70c-34-38-101-51-123-24c-11,12-11,20-2,35c11,17,9,23-12,42c-19,17-22,27-15,40c6,10,7,27,3,40
		c-7,21-8,20-21-10c-7-18-16-33-19-33s-2,5,1,10c3,6-2,10-12,10c-19,0-55,34-47,44c2,3,1,4-3,1c-3-3-12,0-20,7c-11,8-12,7-7-6
		c4-10,1-16-8-16c-10,0-15,10-14,28c1,23,6,27,34,30c35,4,43,17,13,25c-32,8-65-15-72-52c-4-18-12-38-19-44c-6-7-11-7-10-2
		c5,22-1,29-10,15c-12-18-39-4-56,28c-6,12-14,19-17,15c-9-9-8,7,3,32c5,11,9,14,9,7c1-7,5-11,11-7c5,3,7,12,4,20c-4,8-10,12-15,9
		c-17-10-9,22,10,37c17,15,19,13,42-37c23-52,39-69,39-40c0,8-7,21-15,30c-8,8-15,18-15,22c0,5,5,3,12-4c19-19,63-14,84,9
		c24,27,23,102-2,130c-36,40-106,11-121-51c-7-30-32-62-44-54c-12,7-11,81,1,89c6,3,10,0,10-8c0-7,7-14,15-14s15,6,15,12
		c0,18-27,38-40,30c-5-3-10-1-10,4c0,17-50,13-56-4c-4-8-11-15-17-15s-18-7-26-14c-21-19-51-5-34,16c7,7,13,31,15,53
		c2,32,7,40,23,40c21,0,25-21,11-62c-4-14-3-23,3-23c5,0,13,16,17,35c4,23,12,35,23,35c9,0,31,9,49,20c40,24,45,70,10,94
		C971,1813,945,1814,905,1796z M988,1778c20-20,13-38-18-44c-16-4-28-9-26-13c2-3-7-6-20-6s-24,6-24,13c0,6-5,12-11,12
		c-5,0-7-6-3-12c6-10,4-10-7,0c-15,14-8,24,36,46C951,1793,972,1794,988,1778z M1330,1690c24-24,17-44-12-34c-14,4-18,2-14-5
		c4-6,3-11-3-11c-5,0-12,4-16,10c-3,5-12,7-19,4c-25-10-30,18-6,38C1289,1715,1305,1715,1330,1690z M765,1655c-22-19-36-37-32-41
		s7-2,7,4c0,7,3,11,8,10c4-2,18,7,32,20c13,12,34,22,47,22c21,0,22-2,13-21c-20-36-140-78-140-49c0,6,5,10,12,10c6,0,9,3,6,6
		s-15,0-27-8c-32-20-47,3-21,33c15,16,23,20,26,11c8-18,24-4,18,16c-5,16-5,16,8,1s15-15,37,2C800,1704,805,1691,765,1655z
		 M972,1513c8-10,3-13-23-12c-19,1-26,3-16,6c9,2,17,8,17,13c0,4-9,6-19,3c-13-3-21,2-26,17c-6,18-9,20-16,9c-5-8-4-18,1-23
		c15-15,12-49-2-42c-7,3-21,9-30,12c-10,4-18,11-18,16s5,6,10,3c6-3,10-4,10,0c0,3-11,10-25,15s-25,16-25,23c0,10-8,13-25,9
		c-41-7-32-24,35-65c19-11,40-21,45-22c21-1,9-30-15-33c-46-7-96,16-114,51c-9,19-16,25-16,15s-5-18-11-18c-8,0-7-6,2-17
		c13-17,13-17-11-2c-33,21-32,41,3,57c16,8,31,20,34,27c2,8,21,19,40,26c31,10,39,9,62-9c27-19,28-19,51-2c19,15,28,16,39,7
		c12-9,13-9,7,1c-4,7-2,20,6,29c11,14,13,10,16-33C960,1548,966,1520,972,1513z M1138,1598c16-16,15-67-3-98c-14-26-18-23-28,25
		c-3,12-5,7-6-12c-1-39-10-41-39-10c-24,25-21,39,6,31c13-4,13-3-1,6c-18,11-17,14,9,41C1106,1613,1120,1616,1138,1598z M1404,1585
		c-7-18-52-37-59-24c-4,5-2,8,3,7c6-2,10,2,11,7c0,6-11,9-24,7c-14-2-25,1-25,7c0,11,34,18,72,13C1398,1599,1407,1593,1404,1585z
		 M610,1549c0-5,6-7,13-3c8,5,8,2-2-9c-7-9-27-17-44-17h-30l23,20C596,1562,610,1566,610,1549z M800,1540c0-5-7-7-15-4
		c-8,4-15,8-15,10s7,4,15,4S800,1546,800,1540z M652,1478c10-10,16-23,14-27c-9-14-46-20-46-8c0,7-4,5-10-3c-7-12-12-12-22-2
		s-10,17-1,32c10,14,10,20,0,23c-7,3-1,9,13,15c17,6,26,6,29,0C631,1502,641,1489,652,1478z M477,1486c-17-15-24-31-21-41
		c5-11,2-14-10-9c-12,4-16,0-16-15c0-19,2-20,20-9c11,7,20,18,20,24c0,17,51,56,66,50c23-9,16-36-20-72c-28-28-42-34-69-32
		c-25,1-33,6-30,15c3,8,0,13-7,11s-14,2-17,8c-5,15,73,94,94,94C499,1510,496,1504,477,1486z M939,1449c10-17,18-38,16-47
		c-2-10-4-20-4-23c-1-3-12-11-25-17c-44-20-79,23-49,59c6,8,14,24,17,37C904,1488,917,1486,939,1449z M973,1460c-4-16-8-18-19-9
		c-20,16-17,29,5,29C973,1480,977,1475,973,1460z M721,1437c-1-12-15-9-19,4c-3,6,1,10,8,8C716,1446,721,1441,721,1437z M795,1420
		c11-9,28-20,38-23c19-7,24-37,5-37c-7,1-33,21-58,46C737,1449,749,1460,795,1420z M690,1425c0-8-4-15-10-15c-5,0-10-5-10-11
		s5-7,13-2c19,12,40,13,53,2c23-19-26-125-52-115c-8,3-13,0-11-6c2-12-49-35-58-26c-3,3-3,17,1,32c5,20,12,26,33,26c14,0,33,5,41,11
		c11,8,6,9-20,4c-31-5-33-4-17,8c9,8,17,18,17,22s8,13,17,20c15,11,14,13-10,13c-15,0-27-4-27-9c0-20-20-7-21,14c-1,17-2,18-6,4
		c-3-10,0-23,5-30c7-8,6-18-2-30c-15-20-32-22-39-4c-4,8-6,9-6,0c-1-6,5-18,12-25c15-14,12-38-4-38c-6,0-8,4-5,9s-3,11-14,14
		c-28,7-25,29,13,79C627,1430,690,1461,690,1425z M1401,1390c68-20,86-45,49-68c-15-9-20-9-20,0c0,6-3,8-7,5c-3-4-17,0-29,8
		c-21,14-23,14-17-2c5-13,2-15-11-10c-10,4-20,7-22,7s-4,7-4,16c0,8-4,13-9,10s-12,2-15,11c-9,21,22,46,44,37
		C1368,1401,1387,1394,1401,1390z M991,1340c-16-9,43-22,64-14c8,4,15,1,15-5s-4-11-10-11c-5,0-10-13-10-30c0-50-27-53-72-8
		c-21,21-42,37-47,34s-14,0-20,8c-14,17,11,41,34,32c10-3,17,3,21,20l6,25l16-22C999,1353,1000,1346,991,1340z M548,1346
		c-13-19-25-33-27-31c-8,9,22,65,35,65C566,1380,564,1371,548,1346z M775,1348c-6-22-5-22,9-5c8,11,17,14,20,8c7-10-23-31-43-31
		c-6,0-11,11-11,25c0,16,6,25,16,25C777,1370,780,1364,775,1348z M871,1337c12-9,14-18,8-34c-8-22-9-22-38-5c-28,15-29,18-14,34
		C846,1353,850,1353,871,1337z M1183,1333c29-16-21-78-68-83c-41-5-44-1-38,38c8,53,19,64,62,56C1159,1340,1178,1335,1183,1333z
		 M824,1295c16-12,17-18,8-27c-7-7-12-20-12-30c0-19-42-42-48-27c-2,5-11,9-19,9c-9,0-13,6-10,14s-1,13-11,12c-12-1-16,5-14,19
		c2,11,8,22,13,23c5,2,7,7,5,11C727,1313,805,1309,824,1295z M961,1263c26-25,40-46,40-63c-1-71,1-85,16-111c16-27,16-28-15-64
		c-18-19-32-41-32-47c0-7-4-7-14,1c-12,10-10,16,10,36c30,30,40,70,24,100c-7,13-10,27-7,32c4,6-9,17-28,26s-35,22-35,29
		c0,10-2,10-9-1c-7-10-12-8-25,10c-17,25-21,43-7,35c5-3,9,0,8,7C885,1312,905,1314,961,1263z M1270,1268c14-18,15-27,7-45
		c-6-13-14-23-19-23s-6-4-3-10c3-5,1-10-5-10c-45,0-78,72-44,97C1232,1296,1249,1293,1270,1268z M854,1255c-3-8-1-29,5-46
		c9-27,8-30-7-27c-12,3-16,12-15,33c2,32,10,55,17,55C857,1270,857,1263,854,1255z M1520,1244l25-7l-29-8c-30-8-56,3-56,23
		C1460,1261,1466,1260,1520,1244z M1077,1218c4-7,13-32,19-55c12-47,2-76-22-66c-9,3-19,0-24-6c-5-9-9-8-13,4c-4,9-3,13,3,10
		s10-1,10,4c0,6-5,11-11,11s-8,7-5,16c3,8,2,13-3,10s-11,10-13,30c-3,25,1,38,11,44C1051,1233,1067,1232,1077,1218z M1120,1205
		c0-8-4-15-10-15c-5,0-10,7-10,15s5,15,10,15C1116,1220,1120,1213,1120,1205z M1513,1169c14-35,14-39,0-39c-12,0-13-3-4-14
		s8-15-6-20c-17-7-31,9-45,49c-6,19-6,19-7-2c-1-12,4-25,9-28c6-3,10-10,10-16c0-5-9,0-20,11c-24,24-26,57-5,87S1495,1216,1513,1169
		z M420,1196c-6-6-3-18,10-31c13-14,16-25,10-35c-8-13-10-13-10,2c0,9-5,20-11,24c-8,4-9-1-4-15c4-14,0-31-10-48c-14-21-22-24-52-20
		c-43,7-63,23-63,51c0,17,2,18,10,6c6-9,10-10,10-3c0,6-5,15-11,19c-8,4-7,10,1,18c9,8,14,8,17-1c2-6,13-21,24-34c23-27,24-33,3-25
		c-14,5-15,4-4-9c37-44,36,15-1,67c-11,15-18,32-15,37s28,8,55,8C410,1206,425,1201,420,1196z M292,1178c-5-7-12-22-15-33
		c-4-16-5-14-6,7c-1,22,7,33,28,37C301,1190,298,1184,292,1178z M876,1134c18-21,33-34,34-29c0,6,10-10,22-34c17-34,23-40,30-27
		c6,11,2,22-13,37c-11,11-18,24-14,27c3,4,10,0,15-8c11-17,13-9,4,14c-3,9-15,16-26,16c-12,0-17,4-12,12c4,7,3,8-4,4c-6-4-9-13-5-21
		c10-27-5-16-20,15c-10,18-12,32-6,36c38,23,116-60,103-110c-9-36-41-58-66-45c-31,16-68,84-61,110c6,21,5,23-10,10
		c-9-7-17-19-17-27c0-18-19-28-33-16c-19,14-49,23-42,12c10-16-12-12-29,6c-18,17-13,34,10,34c8,0,14,4,14,10c0,5-7,7-15,4
		c-14-6-21,7-10,17c2,3,30,2,61-1C835,1174,846,1169,876,1134z M566,1162c-3-5,8-19,24-31c31-22,38-45,19-57c-12-7-31,15-23,27
		c2,4-4,13-13,20c-18,15-17,14,4-39c3-8,0-10-11-6c-9,3-16,10-16,14s-10,7-22,6c-16-1-23,4-22,16c1,9-4,15-10,12c-17-6-40,12-31,26
		c4,6,22,10,40,8c19-1,37,1,41,5C556,1173,572,1172,566,1162z M485,1098c7-16,24-26,55-33c25-5,53-15,64-21c18-11,18-12-1-30
		c-39-39-54-105-33-144c9-16,7-18-12-15c-30,6-38,24-31,65c3,19,6,40,6,47s3,10,7,8c3-2,12,0,20,6c13,7,13,9-1,9c-9,0-24,9-34,20
		s-23,20-29,20s-5-5,2-12s12-21,12-32c-1-30-50,52-50,82c0,13-6,22-16,22c-11,0-14-6-9-20c5-16,3-19-12-13s-16,4-5-9
		c20-24,23-75,5-82c-20-8-41,15-44,50c-2,22,5,37,29,61c18,17,32,29,32,25c0-3,5-1,12,6C469,1125,474,1123,485,1098z M710,1084
		c0-23-3-25-25-20c-36,9-50-2-30-24c13-15,14-23,5-39c-6-12-8-21-5-21s-8-20-25-45s-35-45-41-45c-29,0-15,78,21,110c9,9,16,27,14,40
		c-2,31,32,70,63,70C705,1110,710,1105,710,1084z M790,1091c0-5-7-11-14-14c-10-4-13-1-9,9C773,1101,790,1105,790,1091z M773,1061
		c34,15,64,7,110-31c44-37,46-53,12-68c-32-15-65-15-65-2c0,6,5,10,10,10c6,0,2,8-7,18c-10,10-19,14-21,10s-11-8-20-8
		c-14-1-13-3,3-12c26-15,45-40,38-52c-3-5-10-1-15,8s-14,16-21,16c-9,0-9-2,0-8c7-4,10-17,6-30c-5-22-7-22-24-6c-11,10-22,14-26,10
		c-4-3,8-18,25-32c44-37,53-86,21-120c-14-15-31-23-41-21c-10,3-15,1-12-4s-2-12-10-15c-9-3-13-10-10-15s10-7,15-3c14,9,37-14,34-34
		c-1-9,0-11,2-4c3,6,10,12,16,12c7,1,2,9-11,20l-23,19l21,11c11,6,30,8,40,5c11-4,20-2,20,3c0,10,30,25,37,19c8-9-10-37-24-37
		c-8,0-13-5-11-11c7-20,23-13,46,22c25,36,49,55,59,45c11-11-32-78-57-90c-14-6-30-18-37-26c-10-12-15-13-32-2c-23,13-28,3-9-16
		c15-15,7-15-29,0c-15,6-31,12-35,12c-3,1-10,5-15,10s-3,6,5,2c19-11,14,4-12,35c-14,16-28,25-31,19c-20-32-77,22-67,63
		c4,18,4,18,18,0c7-10,14-13,14-6c0,6-5,15-10,18c-16,10-2,25,18,19c9-2,7,1-5,7c-31,16-29,21,19,41c48,21,59,17,33-12
		c-24-26-11-26,16,1c18,18,19,22,5,32c-18,14-4,38,29,51c15,5,16,9,6,15c-7,5-10,14-6,20c10,17-2,58-19,64c-11,5-13,0-6-22
		c15-53-54-157-86-130c-10,8-10,17-2,37c18,40,27,49,38,32c5-8,11-12,14-9s-3,15-14,27c-21,22-17,52,6,52c8,0,14,5,14,11s-6,9-13,6
		c-8-3-20-1-28,4c-10,6-7,9,13,9c15,0,30,5,33,10c5,8,11,8,20,0S755,1053,773,1061z M1091,1060c10-6,19-19,19-29c0-27,37-39,81-27
		c21,5,41,7,45,4c3-4,8-25,11-47c5-36,3-41-15-41c-11,0-22-7-26-15c-6-17,9-21,19-4c5,7,12,6,23-4c10-8,26-17,37-21
		c18-7,16-10-20-32c-22-13-50-24-63-24s-21-4-18-9c3-4-6-13-20-20c-37-16-42-13-15,9c13,11,18,20,12,20c-25,0-9,19,22,25
		c17,4,41,14,52,22c18,14,16,15-27,9c-28-3-50-1-54,5c-11,18,17,68,47,81s42,35,13,24c-9-3-26-6-40-6c-16,0-22-4-18-14
		c9-23-24-76-47-76c-16,0-19,4-14,20c5,15,3,18-9,14c-8-3-12-12-9-20s2-14-1-14c-15,0-76,46-76,58c0,15,16,16,25,1c4-6,24-9,44-8
		c20,2,42,0,48-4s13,0,17,8c3,8,1,15-4,15c-6,0-10,6-10,14s-9,18-20,21c-11,4-18,11-15,16c4,5-6,9-22,9c-27-1-27-1-8-16
		c11-8,19-20,17-26c-2-7,2-7,12,1s16,9,21,1c10-16-16-21-67-11c-26,4-45,5-43,0c3-4,1-10-5-14c-15-9-12,21,3,34c8,6,17,8,21,4
		s4,0,0,10c-3,10-1,17,5,17s11,7,11,15c0,7,8,19,18,24C1069,1072,1068,1072,1091,1060z M1435,1030c-3-5-13-10-21-10s-12,5-9,10
		c3,6,13,10,21,10S1438,1036,1435,1030z M1325,1010c10-11,15-20,11-20s0-10,8-22c9-12,16-32,15-43c0-11-3-14-6-7c-2,6-9,12-14,12
		c-4,0-6-6-3-13c3-8-2-19-9-26c-12-9-18-8-31,4c-9,9-20,13-26,10c-16-10-12,7,7,27c12,13,13,18,4,16c-13-3-17,8-25,60
		c-3,18,1,22,24,22C1295,1030,1315,1021,1325,1010z M993,919c12-19-45-109-83-131c-32-18-65-17-65,2c-1,26-17,70-25,70
		c-22,0,7,39,53,71c51,36,53,36,81,20C970,942,987,928,993,919z M470,877c-24-21-120-41-133-28c-8,8-5,11,14,11c13,1,35,7,49,15
		s38,14,55,15C480,890,482,888,470,877z M647,874c2-7-6-10-22-7c-14,3-25,10-25,15C600,895,643,888,647,874z M1114,872
		c44-6,47-9,33-21c-10-7-17-21-17-30s-7-25-15-35c-14-19-15-18-15,10c0,17-7,39-15,50c-14,18-15,16-10-23c3-23,6-47,7-53
		c2-7-9-21-24-32c-24-19-30-19-57-8c-17,7-32,18-32,24c-5,41,4,80,23,107c19,25,28,29,48,24C1054,881,1087,875,1114,872z M630,830
		c12-7,12-12,3-21c-10-10-17-9-33,6c-16,14-20,15-20,4c0-8,4-19,8-24c5-6,14-29,21-52c6-24,16-43,21-43c6,0,10-7,10-15
		c0-18-5-18-33-4c-62,32-81,74-56,122C571,840,599,850,630,830z M500,790c15-9,22-60,12-95c-5-20-5-20-14,0c-6,15-7,13-3-8
		c8-38-9-57-43-51c-36,7-61,31-58,57c2,24,25,69,26,52c0-6-6-17-12-25c-11-12-10-12,5-1c9,7,17,24,17,37C430,790,469,810,500,790z
		 M685,690c-3-5-10-10-16-10c-5,0-9,5-9,10c0,6,7,10,16,10C684,700,688,696,685,690z"/>
	<path d="M910,1550c0-5,5-10,10-10c6,0,10,5,10,10c0,6-4,10-10,10C915,1560,910,1556,910,1550z"/>
	<path d="M780,1490c0-5,5-10,11-10c5,0,7,5,4,10c-3,6-8,10-11,10C782,1500,780,1496,780,1490z"/>
	<path d="M811,1464c0-11,3-14,6-6c3,7,2,16-1,19C813,1481,810,1475,811,1464z"/>
	<path d="M1075,1570c-3-5-1-10,4-10c6,0,11,5,11,10c0,6-2,10-4,10C1083,1580,1078,1576,1075,1570z"/>
	<path d="M1107,1312c-24-27-21-36,4-11c11,11,19,23,16,25C1125,1328,1116,1322,1107,1312z"/>
	<path d="M1110,1280c0-5,5-10,10-10c6,0,10,5,10,10c0,6-4,10-10,10C1115,1290,1110,1286,1110,1280z"/>
	<path d="M771,1274c0-11,3-14,6-6c3,7,2,16-1,19C773,1291,770,1285,771,1274z"/>
	<path d="M1030,1170c0-5,5-10,11-10c5,0,7,5,4,10c-3,6-8,10-11,10C1032,1180,1030,1176,1030,1170z"/>
	<path d="M356,1181c-3-5,1-11,9-15c8-3,15-1,15,4C380,1183,362,1192,356,1181z"/>
	<path d="M380,1130c0-5,5-10,10-10c6,0,10,5,10,10c0,6-4,10-10,10C385,1140,380,1136,380,1130z"/>
	<path d="M520,1125c0-8,7-15,16-15c14,0,14,3,4,15c-7,8-14,15-16,15S520,1133,520,1125z"/>
	<path d="M529,1031c14-25,30-27,57-7c19,15,19,15-1,14c-11-1-31,2-43,6C520,1051,519,1050,529,1031z"/>
	<path d="M590,940c0-5,5-10,11-10c5,0,7,5,4,10c-3,6-8,10-11,10C592,950,590,946,590,940z"/>
	<path d="M727,820c-3-11-2-22,2-24c4-3,8,6,9,20C740,845,734,847,727,820z"/>
	<path d="M760,805c0-5,5-17,10-25s10-10,10-5c0,6-5,17-10,25S760,811,760,805z"/>
	<path d="M1177,933c-4-3-7-13-7-22c1-13,3-13,11,2C1192,932,1189,946,1177,933z"/>
	<path d="M1300,922c0-12,19-26,26-19c2,2-2,10-11,17C1306,928,1300,928,1300,922z"/>
	<path d="M847,829c7-7,15-10,18-7s-2,9-12,12C839,840,838,839,847,829z"/>
	<path d="M1007,799c7-7,15-10,18-7s-2,9-12,12C999,810,998,809,1007,799z"/>
	<path d="M405,690c-3-5-1-10,4-10c6,0,11,5,11,10c0,6-2,10-4,10C413,700,408,696,405,690z"/>
	<path d="M430,665c0-8,4-15,10-15c5,0,7,7,4,15c-4,8-8,15-10,15S430,673,430,665z"/>
	<path d="M175,1763c-44-23-75-54-75-75c0-27,43-88,62-88c32,0,123,39,151,65c31,30,33,42,9,71C284,1782,229,1792,175,1763z
		 M245,1750c-3-5,0-7,9-4c22,8,56-14,56-37c0-12-4-17-11-14c-6,4-8,14-5,22c4,8,1,11-5,7c-6-3-8-17-5-30c7-27-4-30-37-12
		c-20,10-21,10-8-5c12-15,11-17-8-17c-11,0-21-5-21-10c0-7-7-7-21,1c-15,8-19,8-15,0c14-22-12-10-27,13c-14,21-14,26,0,45
		c9,14,21,20,31,16c9-3,13-3,9,1c-4,5,3,14,15,21C230,1762,254,1764,245,1750z"/>
	<path d="M1510,1713c-54-37-66-81-28-107c44-31,97-16,117,33c10,23,10,34,0,53C1577,1734,1550,1741,1510,1713z M1561,1700
		c23-13,24-28,3-58c-12-17-19-20-29-12c-7,6-20,8-29,4c-24-9-20,25,6,53C1537,1714,1535,1713,1561,1700z"/>
	<path d="M412,1678c-31-35-37-72-16-107c31-53,92-54,119-1c19,37,19,55-2,91c-18,30-40,41-30,15c3-8-1-20-9-26c-8-7-14-18-14-24
		c0-7-11-22-24-34c-24-20-25-20-31-2c-3,10,1,32,9,49c25,47,37,46,21-1c-13-38-13-41,0-24c8,11,15,26,15,33s5,13,10,13
		c6,0,10,9,10,20C470,1707,439,1706,412,1678z M502,1585c-7-14-19-28-28-32c-19-7-44,14-28,25c6,4,19,23,29,42c18,34,18,34,28,12
		C510,1617,510,1602,502,1585z"/>
	<path d="M270,1560c-8-5-25-10-37-10c-38,0-47-33-22-82c31-62,48-78,83-78c39,0,52,9,65,43c15,39-6,96-44,119
		C294,1564,280,1566,270,1560z M320,1517c0-4-6-7-12-6c-34,4-41,0-27-17c8-9,14-22,15-28c0-6,2-17,2-24c1-7,7-10,12-7c6,3,10,2,10-4
		c0-19-42-24-58-7c-15,14-15,19-3,39c13,19,12,20-1,10c-11-10-17-10-26-1c-25,25-1,57,37,50c19-4,23-2,18,11c-5,14-3,15,13,4
		C311,1531,320,1522,320,1517z M325,1490c4-6,11-8,16-5c5,4,9-7,9-24c0-16-4-33-10-36c-6-4-10,7-10,25c0,22-6,33-22,40
		c-17,6-18,9-6,9C311,1500,322,1495,325,1490z M320,1460c0-5-2-10-4-10c-3,0-8,5-11,10c-3,6-1,10,4,10C315,1470,320,1466,320,1460z"
		/>
	<path d="M1540,1507c-52-27-32-70,54-114c47-24,49-24,67-6s18,19-2,60c-11,23-26,46-32,52C1605,1516,1565,1520,1540,1507z
		 M1628,1476c17-17,20-68,4-73c-7-3-27,10-44,29c-17,18-28,27-24,21c4-7,3-13-3-13c-8,0-8,24-2,59C1561,1506,1616,1488,1628,1476z"
		/>
	<path fill="#F22A2A" d="M1873,1445c-57-26-87-63-103-130c-5-22-15-53-21-70c-29-80-44-193-27-215c8-12,9-11,4,4
		c-6,17,39,186,49,186c2,0,22-17,44-37c65-61,75-68,101-69c14-1,48-4,75-7c28-3,54-6,58-6c5-1,5-5,2-11c-8-14-2-13,31,5
		c16,8,37,15,48,15c17,0,18-6,12-70c-4-41-3-70,2-70c14,0,22,38,22,108c0,48,5,69,21,91c43,59,40,145-9,210c-10,14-47,41-81,59
		C2021,1479,1950,1482,1873,1445z M2085,1426c29-13,59-35,66-48c7-12,19-28,28-35c20-15,7-17-19-3c-16,8-18,8-14-5c3-8,10-12,15-9
		s9,0,9-7s3-9,7-6c14,15,32-52,23-84c-35-120-215-145-349-48c-59,42-75,84-56,140c18,50,29,64,76,98C1922,1457,2012,1460,2085,1426z
		"/>
	<path fill="#F22A2A" d="M1951,1415c-13-8-28-20-33-29c-11-20,0-62,20-78c14-11,15-10,8,7c-18,43-18,56-2,74c40,44,121,28,151-28
		c16-32,7-71-15-71c-6,0-10-4-10-10c0-15,16-12,34,6c20,20,21,88,1,104c-8,7-15,9-15,4s-4-4-8,2c-8,13-68,34-91,33
		C1982,1428,1964,1422,1951,1415z"/>
	<path fill="#F22A2A" d="M1990,1270c20-13,50-13,50,0c0,6-15,10-32,10C1983,1280,1979,1277,1990,1270z"/>
	<path d="M1011,1405c0-11,8-26,19-32c16-11,18-10,14,2c-4,8-10,15-14,15c-5,0-11,8-13,18C1013,1422,1012,1422,1011,1405z"/>
	<path d="M1060,1390c0-5,5-10,11-10c5,0,7,5,4,10c-3,6-8,10-11,10C1062,1400,1060,1396,1060,1390z"/>
	<path d="M1682,1206c-46-50-67-111-57-165c8-41,34-95,42-87c3,3-1,16-9,28c-39,61-23,157,38,219c21,21,35,41,32,44
		S1705,1230,1682,1206z"/>
	<path d="M2472,1208c-7-7-12-28-12-47c0-39,16-32,22,9c2,16,10,26,24,28c30,4,39-24,11-32c-20-6-18-8,18-25c95-44,192-167,254-324
		c36-91,38-110,11-137c-26-26-26-25,11-41c100-41,55,140-89,360c-20,30-72,92-116,138C2526,1219,2498,1234,2472,1208z M2850,685
		c0-18-5-25-20-25c-24,0-25,8-3,32C2848,715,2850,715,2850,685z"/>
	<path d="M1176,1173c-6-14-5-15,5-6c7,7,10,15,7,18S1179,1183,1176,1173z"/>
	<path d="M635,1151c-3-5-1-12,5-16c5-3,10,1,10,9C650,1162,644,1165,635,1151z"/>
	<path d="M1182,1134c-6-11-13-18-16-16c-17,7-36,0-36-13c0-19,29-19,54,0c22,17,76,20,76,5c0-5-12-10-26-10s-23-4-19-10s11-8,16-5
		s7,0,4-7c-4-10,9-13,57-11c35,1,73,2,86,3c16,0,22,6,22,21c0,16-3,19-12,12c-7-6-26-11-43-11c-16-1-39-2-50-4c-13-2-20,3-20,15
		c0,23-22,36-47,29c-11-3-24,1-28,8C1194,1149,1190,1148,1182,1134z"/>
	<path d="M1674,1113c-70-166,174-351,380-289c90,27,156,104,155,181c0,27-2,25-19-18c-10-27-24-55-30-63c-7-8-9-14-4-14
		c17,0-61-50-103-66c-61-24-162-15-228,19c-69,37-109,72-100,87c5,9,4,11-4,6c-30-19-49,114-25,177C1709,1167,1688,1149,1674,1113z"
		/>
	<path d="M1286,1126c3-9,11-16,16-16c13,0,5,23-10,28C1285,1140,1282,1136,1286,1126z"/>
	<path d="M160,1119c-34-14-70-49-70-69c0-22,52-70,76-70c29,0,83,37,96,65c9,19,8,29-6,50c-9,14-23,25-30,25c-8,0-20,2-28,4
		C191,1127,174,1124,160,1119z M241,1084c13-15,4-34-17-34c-8,0-13-6-11-12c1-9-11-13-38-13c-22,1-40,5-40,10c0,6-3,15-7,20
		c-3,6,0,16,8,23s14,10,14,7c0-4,6,0,14,8C181,1110,224,1105,241,1084z"/>
	<path d="M1343,1118c18-6,32-7,38-1c5,5-6,9-28,10C1316,1127,1315,1127,1343,1118z"/>
	<path d="M2210,1114c0-3,5-15,12-27c6-12,14-46,18-77l7-55l2,51c1,54-15,114-30,114C2214,1120,2210,1117,2210,1114z"/>
	<path fill="#F22A2A" d="M2434,1089c-22-17-38-36-36-41c1-5-2-7-8-3c-10,6-30-9-154-111l-61-51l2-54c3-113,3-113,41-144
		c20-16,34-25,30-20c-4,4-3,14,3,21c7,8,7,14-1,19c-5,3-10,0-10-7c-1-24-40,34-40,58c0,13-6,24-12,24c-9,0-10,3-2,8
		c17,11,22,35,12,55c-14,28,8,20,34-12c44-57,63-86,60-96c-2-5-1-7,3-3c8,8,48-37,95-106c22-32,35-44,40-36c4,7,0,20-10,30
		c-9,9-51,62-92,116s-87,108-101,119l-26,19l21,23c12,13,27,23,35,23c7,0,13,5,13,10c0,6,6,10,14,10s17,7,20,16c4,9,9,14,13,11
		c3-4,21,3,39,14c19,11,38,18,44,14c6-3,7,0,4,9s-1,16,5,16s13,0,16,0c6,0,47,34,87,73c19,17,24,27,14,27c-8,0-18-5-21-10
		c-3-6-21-17-38-26l-32-17l24,27C2492,1129,2481,1127,2434,1089z"/>
	<path d="M1389,856c-113-43-222-103-325-177S924,560,940,531c11-22,30-28,30-11c0,6,7,10,16,10s14,6,11,13c-2,6-14,10-27,9
		c-19-3-15,3,23,41c55,53,219,167,241,167c9,0,16,4,16,8c0,12,64,41,155,71c72,24,101,41,78,48C1479,888,1436,874,1389,856z"/>
	<path d="M1731,864c77-82,253-107,378-53c69,29,51,37-20,8c-103-41-259-20-338,47C1713,898,1700,897,1731,864z"/>
	<path d="M194,779c-45-50,2-159,68-159c28,0,66,16,81,35c14,17-1,76-28,111c-22,28-33,34-64,34C225,800,207,793,194,779z M290,762
		c31-29,41-66,23-91c-26-37-85-2-98,58c-6,26-3,32,17,40C265,783,269,782,290,762z"/>
	<path d="M220,749c0-5,5-7,10-4c6,3,10,8,10,11c0,2-4,4-10,4C225,760,220,755,220,749z"/>
	<path fill="#F22A2A" d="M1606,598c-57,142-76,177-76,135c1-10,9-36,20-58s19-50,20-62c0-13,5-23,10-23c6,0,10-8,10-18s3-22,6-25
		c4-4,8-21,9-38c2-17,8-35,14-38c18-11-25-45-114-90c-65.554-33.99-91.132-45.043-92.682-39.016
		c-18.19-16.791-39.567-29.27-63.764-35.123c-2.423-6.537-8.008-7.584-16.395-2.886c-2.368-0.262-4.744-0.507-7.159-0.643
		c-1.03-0.058-1.998,0.035-3.001,0.042c11.677-15.275,10.177-16.046-3.999-10.375c-19,7-25-7-8-18c9-6,200,86,269,129
		c20,13,48,27,62,32l26,9L1606,598z"/>
	<path d="M920,661c-11-16-20-34-20-40c0-18-63-83-93-96c-37-15-80-8-73,12c4,8,9,27,12,41c5,26,4,26-9-3c-18-37-74-95-93-95
		c-21,0-27,20-12,38c27,31,30,42,13,42c-9,0-13-4-10-10c3-5,2-10-4-10s-13-11-17-25c-6-24-24-35-24-15c0,12,22,62,35,77
		c5,7,15,19,22,27s18,16,25,19c7,2,10,7,6,11c-11,13-68-24-88-57c-22-36-26-87-8-105c23-23,74-14,109,19c29,27,34,29,48,15
		c14-15,13-16-6-16c-38,0-67-33-67-76c0-58,12-92,35-105c17-9,24-8,31,2c7,11,11,11,15,1c7-17,27-15,46,6c23,25,24,134,2,152
		c-13,11-10,15,22,30c43,19,67,43,82,80l10,25v-25c1-25,1-25,17,5c8,16,22,37,30,46c18,20,18,45-1,52C946,687,933,678,920,661z
		 M941,637l-23-22l17,28c10,15,20,25,23,22S953,649,941,637z M780,465c8-9,10-27,6-46c-4-20-2-28,5-23c14,9,2-36-15-54
		c-13-13-46-7-46,10c0,5-4,6-10,3c-9-6-14,10-13,43c1,6-3,12-8,12c-8,0-3,44,8,63C714,486,767,480,780,465z"/>
	<path fill="#F22A2A" d="M2190,683c0-4,15-33,34-65c19-31,32-58,30-60c-2-3,2-5,9-6c6,0,43-12,81-27c38-14,74-24,80-22c6,3,2,8-9,12
		c-44,16-141,58-152,67c-7,6-23,30-35,55C2207,680,2190,700,2190,683z"/>
	<path fill="#F22A2A" d="M2736,681c-17-6-33-41-19-41c13,0,41,21,47,35C2770,691,2765,693,2736,681z"/>
	<path d="M690,627c0-7-9-18-20-25c-12-7-18-17-14-23s13-4,25,7c25,23,37,10,14-16c-10-11-15-23-12-27c10-9,36,28,37,50
		c0,9-4,17-10,17c-5,0-7,7-4,15c4,8,1,15-5,15S690,634,690,627z"/>
	<path d="M845,600c-3-5-2-10,4-10c5,0,13,5,16,10c3,6,2,10-4,10C856,610,848,606,845,600z"/>
	<path fill="#F22A2A" d="M2634,595c-10-8-14-14-9-15c15,0,40,18,34,24C2656,607,2645,603,2634,595z"/>
	<path d="M761,568c-16-26-11-30,11-7c10,10,14,20,10,23C777,587,768,580,761,568z"/>
	<path fill="#F22A2A" d="M2580,570c-8-5-10-10-5-10c6,0,17,5,25,10s11,10,5,10C2600,580,2588,575,2580,570z"/>
	<path fill="#F22A2A" d="M2458,554c-16-8-28-16-28-18c0-9,40,7,51,20C2495,573,2492,573,2458,554z"/>
	<path fill="#F22A2A" d="M1010,552c0-32,157-268,225-337c29-29,33-30,103-27c39,2,72,8,72,13s-3,8-7,8c-5-1-40-1-79,0l-72,1l-68,91
		c-64,86-134,194-134,208C1049,522,1010,564,1010,552z"/>
	<path d="M140,521c-13-25-13-102,0-135c13-34,56-62,73-47c8,6,16,8,20,5c3-3,13,6,23,21c16,24,16,34,6,83c-6,30-19,63-28,73
		C211,547,154,546,140,521z M226,485c15-38,16-103,1-112s-48,32-52,66c-2,18,0,29,5,26c6-3,7,1,4,9c-3,9-11,13-18,9c-6-3-2,3,8,15
		C200,528,209,526,226,485z"/>
	<path d="M655,520c-3-5-2-10,4-10c5,0,13,5,16,10c3,6,2,10-4,10C666,530,658,526,655,520z"/>
	<path d="M405,445c-14-13-25-33-25-43c0-46,88-111,151-112c15,0,36,11,49,25c23,25,23,26,7,60c-19,40-97,95-134,95
		C440,470,418,459,405,445z M470,439c0-5,6-6,13-3c7,2,30-11,51-30c43-40,46-71,6-70c-31,1-116,40-100,46c9,3,8,9-4,21
		c-14,13-15,19-4,30C445,448,470,451,470,439z"/>
	<path d="M863,460c-28-12-44-67-33-117c10-42,57-90,73-74c5,5,16,7,23,4c62-23,106,65,69,137C967,463,918,482,863,460z M933,427
		c-3-5-1-7,4-4c15,9,45-27,46-55c1-55-22-80-64-68c-15,5-30,6-33,2c-3-3-6,0-6,6c0,7,5,12,12,12c17,0,3,11-19,14c-10,2-17,11-17,20
		c1,9-2,16-7,16s-9,7-9,16s5,12,12,8s8-3,4,5c-9,14,11,40,39,51C917,459,943,443,933,427z"/>
	<path fill="#F22A2A" d="M1622,393c-11-16-27-43-36-61s-21-30-26-27c-6,3-7-1-4-10c4-9,2-15-2-13c-5,2-16-3-24-10c-8-6-26-21-40-33
		c-17-14-7-11,30,9c47,26,60,41,93,101C1653,422,1657,442,1622,393z"/>
	<path d="M366,278c-24-35-21-111,7-143c20-23,25-24,59-15c45,13,58,34,58,94c0,57-25,86-74,86C391,300,377,293,366,278z M447,268
		c19-24,22-74,7-97c-19-26-29-26-56-1c-12,11-17,20-11,20c5,0,9,12,9,28C393,270,423,299,447,268z"/>
	<path d="M563,266c-28-32-28-37-2-70c24-30,78-56,119-56c43,0,82,36,78,73c-4,40-44,64-118,73C589,291,583,290,563,266z M714,251
		c28-11,28-12,11-31c-16-18-17-20-2-20c26,0,20-19-7-26c-40-10-106,6-138,34c-22,18-23,32-3,32c9,0,12,6,8,17c-6,14,0,15,48,10
		C661,264,698,257,714,251z"/>
	<path d="M615,249c-20-7-20-8,0-8c11-1,33-8,49-16c35-18,36-18,36-2C700,241,640,259,615,249z"/>
	<path d="M782,193c-29-36-28-46,9-88c41-47,95-63,137-41c62,32,49,96-28,137C849,229,808,226,782,193z M917,146c28-26,18-44-11-18
		c-37,33-99,67-94,51c2-8,13-19,24-24c46-24,48-27,29-42c-11-7-14-13-8-13c7,0,15,5,18,10c9,15,25,2,25-20c0-16-4-17-30-10
		c-39,11-78,40-86,64c-5,14,1,27,20,43l27,23l32-22C881,176,905,157,917,146z M935,90c-3-5-10-10-16-10c-5,0-9,5-9,10
		c0,6,7,10,16,10C934,100,938,96,935,90z"/>
</g>
</svg>
