<?xml version="1.0" encoding="utf-8"?>
<!-- Generator: Adobe Illustrator 18.0.0, SVG Export Plug-In . SVG Version: 6.00 Build 0)  -->
<!DOCTYPE svg PUBLIC "-//W3C//DTD SVG 1.1//EN" "http://www.w3.org/Graphics/SVG/1.1/DTD/svg11.dtd">
<svg version="1.1" id="Layer_1" xmlns="http://www.w3.org/2000/svg" xmlns:xlink="http://www.w3.org/1999/xlink" x="0px" y="0px"
	 viewBox="0 0 1444.9 336" enable-background="new 0 0 1444.9 336" xml:space="preserve">
<path fill="#FFFFFF" d="M304.6,181.9c-3.3-3-7.8-8.5-17.8-8.5c-12.6,0-23,10.4-23,23.4c0,12.2,10.4,23.4,23,23.4
	c7.4,0,14.1-4.1,18.2-9.3c1.1,1.1,13.4,13.7,14.8,15.2c-5.9,6.3-17.1,15.6-33,15.6c-24.1,0-44.9-18.9-44.9-44.5s20.4-44.9,44.9-44.9
	c16,0,26.7,8.5,32.7,14.5C318.7,167.4,306.1,180.1,304.6,181.9"/>
<path fill="#FFFFFF" d="M319.8,196.4c0-24.9,20-44.9,44.5-44.9c24.9,0,44.9,20,44.9,44.9c0,24.5-20,44.5-44.5,44.5
	C339.9,240.9,319.8,221.2,319.8,196.4 M341.7,196.4c0,13,10,23.4,23,23.4s23-10.4,23-23.4c0-13-10-23.4-23-23.4
	C351.7,173,341.7,183.4,341.7,196.4"/>
<polygon fill="#FFFFFF" points="416.7,239.1 416.7,153.7 484.6,153.7 484.6,174.9 438.6,174.9 438.6,186.4 474.2,186.4 474.2,207.5 
	438.6,207.5 438.6,239.1 "/>
<polygon fill="#FFFFFF" points="493.8,239.1 493.8,153.7 561.7,153.7 561.7,174.9 515.7,174.9 515.7,186.4 551.4,186.4 551.4,207.5 
	515.7,207.5 515.7,239.1 "/>
<polygon fill="#FFFFFF" points="571,239.1 571,153.7 630.4,153.7 630.4,174.9 592.5,174.9 592.5,186 619.6,186 619.6,207.1 
	592.5,207.1 592.5,217.9 630.4,217.9 630.4,239.1 "/>
<polygon fill="#FFFFFF" points="641.5,239.1 641.5,153.7 700.9,153.7 700.9,174.9 663,174.9 663,186 690.1,186 690.1,207.1 
	663,207.1 663,217.9 700.9,217.9 700.9,239.1 "/>
<path fill="#EE302C" d="M241.5,91.4c0-25.6,20.4-46,46-46c25.6,0,46,20.4,46,46c0,25.2-20.4,46-46,46
	C262,137,241.5,116.6,241.5,91.4 M263.8,91.4c0,13.4,10.4,24.1,23.7,24.1c13.4,0,23.4-10.4,23.4-24.1c0-13.4-10.4-24.1-23.7-24.1
	C274.2,66.9,263.8,77.7,263.8,91.4"/>
<polygon fill="#EE302C" points="346.2,134.8 346.2,47.2 415.9,47.2 415.9,69.1 368.8,69.1 368.8,81 405.2,81 405.2,102.5 
	368.8,102.5 368.8,134.8 "/>
<polygon fill="#EE302C" points="425.6,134.8 425.6,47.2 495.3,47.2 495.3,69.1 448.2,69.1 448.2,81 484.6,81 484.6,102.5 
	448.2,102.5 448.2,134.8 "/>
<rect x="505.4" y="81" fill="#EE302C" width="22.6" height="54.2"/>
<path fill="#EE302C" d="M605.5,76.2c-3.3-3-8.2-8.9-18.2-8.9c-13,0-23.7,10.8-23.7,24.1c0,12.6,10.4,23.7,23.7,23.7
	c7.4,0,14.5-4.5,18.6-9.6c1.5,1.5,14.1,14.1,15.2,15.6c-5.9,6.7-17.8,16.3-33.8,16.3c-24.9,0-46.4-19.3-46.4-46
	c0-26.3,21.1-46,46.4-46c16.7,0,27.5,8.5,33.8,14.8C619.6,61.3,607,74.3,605.5,76.2"/>
<polygon fill="#EE302C" points="631.5,134.8 631.5,47.2 700.9,47.2 700.9,69.1 653.4,69.1 653.4,80.6 690.1,80.6 690.1,102.1 
	653.4,102.1 653.4,113.3 700.9,113.3 700.9,134.8 "/>
<path fill="#FFFFFF" d="M269.7,290.6H164c-54.2-4.8-94.6-17.1-104.3-32.3h313.9C364.7,273.6,323.9,285.8,269.7,290.6"/>
<path fill="#FFFFFF" d="M54.2,47.2c0.4,3.7,1.1,7.4,1.9,11.1c-3.3-0.7-6.7-1.1-10-1.1c-25.6,0-46,20.4-46,46c0,25.2,20.4,46,46,46
	c13.7,0,26.3-6.3,34.5-16c22.6,45.6,57.1,84.6,99.8,112.1h43.8V47.2H54.2z M46,127.4c-13.4,0-23.7-10.4-23.7-24.1
	c0-13.4,10.4-24.1,23.4-24.1c6.3,0,12.2,2.6,16.3,6.7c1.9,7,4.5,14.1,7,21.1C67.5,118.8,58.3,127.4,46,127.4"/>
<path fill="#FFFFFF" d="M404.1,265.4c0.7,1.5,1.1,3.7,1.1,5.2c-0.4,0.4-1.1,0.7-1.5,0.4c-1.1-3-3-4.8-5.9-4.8
	c-2.6,0-4.1,1.5-4.1,4.1c0,2.6,2.6,4.1,5.2,5.6c3.3,1.9,6.7,4.1,6.7,8.9c0,5.2-4.5,7.4-9.6,7.4c-3,0-5.6-0.7-7-1.9
	c-0.4-1.1-0.7-4.5-0.7-6.7c0.4-0.4,1.1-0.4,1.5,0c1.1,3.7,3.3,6.7,7,6.7c2.2,0,4.5-1.5,4.5-4.1c0-3-2.6-4.8-5.2-5.9
	c-3.7-2.2-6.7-4.5-6.7-8.2c0-4.8,4.1-7.4,8.9-7.4C400.7,264.3,403.3,264.7,404.1,265.4"/>
<path fill="#FFFFFF" d="M447.8,277.6c0,8.2-5.6,14.1-14.1,14.1c-7.4,0-13.7-5.2-13.7-13.7c0-8.2,6.3-14.1,14.1-14.1
	C441.9,264.3,447.8,269.8,447.8,277.6 M433.7,266.1c-4.5,0-7.4,4.1-7.4,11.5c0,5.9,2.6,12.6,8.5,12.6s7.4-5.9,7.4-11.1
	C441.9,273.2,439.7,266.1,433.7,266.1"/>
<path fill="#FFFFFF" d="M471.6,283.6c0,4.8,0,5.6,2.6,5.6l1.5,0.4c0.4,0.4,0.4,1.5,0,1.5c-2.2,0-4.1-0.4-6.3-0.4
	c-2.2,0-4.5,0-6.3,0.4c-0.4-0.4-0.7-1.5,0-1.5l1.5-0.4c2.6-0.4,2.6-1.1,2.6-5.6v-24.5c0-4.1,0-4.5-2.2-5.6l-0.7-0.4
	c-0.4-0.4-0.4-1.1,0-1.5c1.5-0.4,4.8-1.5,7-2.6c0.4,0,0.4,0,0.7,0.4c0,1.9-0.4,5.2-0.4,8.2L471.6,283.6L471.6,283.6z"/>
<path fill="#FFFFFF" d="M498.7,281.4c0,4.5,1.1,7.4,6.3,7.4c1.9,0,4.1-0.7,5.2-1.9c0.7-0.7,1.5-1.9,1.5-3.7v-10.8
	c0-4.5-0.4-4.5-2.6-5.2l-0.7-0.4c-0.4-0.4-0.4-1.1,0-1.5c2.6,0,6.3-0.4,7.8-1.1c0.4,0,0.4,0.4,0.7,0.4c0,1.1-0.4,3.3-0.4,5.6v11.1
	c0,5.2,0.4,7,2.2,7c0.7,0,1.5,0,2.6-0.4c0.4,0.4,0.4,1.5,0,1.9c-2.6,0.4-6.3,1.1-8.5,2.6c-0.4,0-0.7-0.4-0.7-0.4v-2.6
	c0-0.7-0.4-0.7-0.7-0.7c-1.9,1.1-5.2,3.3-9.3,3.3c-5.9,0-8.2-3-8.2-8.2v-11.1c0-4.1,0-4.8-1.9-5.6l-0.7-0.4c-0.4-0.4-0.4-1.1,0-1.5
	c3,0,5.6-0.7,7-1.1c0.4,0,0.7,0.4,0.7,0.4c0,1.1-0.4,2.6-0.4,5.6L498.7,281.4L498.7,281.4z"/>
<path fill="#FFFFFF" d="M544.7,268c-1.1,0-1.1,0.4-1.1,1.5v12.2c0,3.7,0.4,7.4,4.8,7.4c0.7,0,1.1,0,1.9-0.4s1.5-0.7,1.5-0.7
	c0.4,0,0.7,0.7,0.7,1.1c-1.1,1.5-3.7,3-7,3c-5.6,0-7-3.3-7-7v-15.2c0-1.9,0-1.9-1.5-1.9H535c-0.4-0.4-0.4-1.1-0.4-1.5
	c1.9-0.7,3.7-1.5,4.1-2.2c0.7-0.7,2.2-2.6,2.6-4.1c0.4,0,1.1,0,1.5,0.4v3c0,1.1,0,1.1,1.1,1.1h7.4c0.7,0.7,0.7,2.2,0,2.6h-6.7V268z"
	/>
<path fill="#FFFFFF" d="M570.3,272.1c0-2.6,0-3-1.9-4.1l-0.7-0.4c-0.4-0.4-0.4-1.1,0-1.1c1.5-0.4,5.2-2.2,6.7-3.3
	c0.4,0,0.7,0,0.7,0.4c0,2.2-0.4,5.6-0.4,8.2v11.9c0,4.8,0,5.6,2.6,5.9l1.5,0.4c0.4,0.4,0.4,1.5,0,1.5c-1.9,0-4.1-0.4-6.3-0.4
	s-4.5,0-6.3,0.4c-0.4-0.4-0.7-1.5,0-1.5l1.5-0.4c2.6-0.4,2.6-1.1,2.6-5.9V272.1L570.3,272.1z M575.8,256.1c0,2.2-1.5,3.3-3.3,3.3
	c-2.2,0-3.3-1.5-3.3-3.3c0-2.2,1.5-3.7,3.7-3.7C574.4,252.8,575.8,254.3,575.8,256.1"/>
<path fill="#FFFFFF" d="M621.5,277.6c0,8.2-5.6,14.1-14.1,14.1c-7.4,0-13.7-5.2-13.7-13.7c0-8.2,6.3-14.1,14.1-14.1
	C615.5,264.3,621.5,269.8,621.5,277.6 M607.4,266.1c-4.5,0-7.4,4.1-7.4,11.5c0,5.9,2.6,12.6,8.5,12.6s7.4-5.9,7.4-11.1
	C615.9,273.2,613.7,266.1,607.4,266.1"/>
<path fill="#FFFFFF" d="M641.2,272.1c0-2.6,0-3-1.9-4.1l-0.7-0.4c-0.4-0.4-0.4-1.1,0-1.1c1.5-0.4,5.2-2.2,6.7-3.3
	c0.4,0,0.7,0,0.7,0.4c0,1.5,0,2.6,0,3s0.4,0.7,0.7,0.7c2.6-1.9,5.9-3.3,9.3-3.3c5.6,0,7.8,3.7,7.8,8.2v11.5c0,4.8,0,5.6,2.6,5.6
	l1.5,0.4c0.4,0.4,0.4,1.5,0,1.5c-1.9,0-4.1-0.4-6.3-0.4c-2.2,0-4.5,0-6.3,0.4c-0.4-0.4-0.7-1.5,0-1.5l1.1-0.4
	c2.6-0.4,2.6-1.1,2.6-5.6v-9.6c0-3.7-1.9-6.7-6.3-6.7c-2.6,0-4.8,1.1-5.6,2.2s-1.1,2.2-1.1,4.1v10c0,4.8,0,5.2,2.6,5.6l1.1,0.4
	c0.4,0.4,0.4,1.5,0,1.5c-1.9,0-3.7-0.4-5.9-0.4s-4.5,0-6.3,0.4c-0.4-0.4-0.7-1.5,0-1.5l1.5-0.4c2.6-0.4,2.6-1.1,2.6-5.6v-11.5H641.2
	z"/>
<path fill="#FFFFFF" d="M698.3,265.4c0.7,1.5,1.1,3.7,1.1,5.2c-0.4,0.4-1.1,0.7-1.5,0.4c-1.1-3-3-4.8-5.9-4.8
	c-2.6,0-4.1,1.5-4.1,4.1c0,2.6,2.6,4.1,5.2,5.6c3.3,1.9,6.7,4.1,6.7,8.9c0,5.2-4.5,7.4-9.6,7.4c-3,0-5.6-0.7-7-1.9
	c-0.4-1.1-0.7-4.5-0.7-6.7c0.4-0.4,1.1-0.4,1.5,0c1.1,3.7,3.3,6.7,7,6.7c2.2,0,4.5-1.5,4.5-4.1c0-3-2.6-4.8-5.2-5.9
	c-3.7-2.2-6.7-4.5-6.7-8.2c0-4.8,4.1-7.4,8.9-7.4C695.3,264.3,697.5,264.7,698.3,265.4"/>
<rect x="505.4" y="47.2" fill="#221A15" width="22.6" height="22.3"/>
<path fill="#EE302C" d="M1032.6,183.9c-3.3-3-7.8-8.5-17.8-8.5c-12.6,0-23,10.4-23,23.4c0,12.2,10.4,23.4,23,23.4
	c7.4,0,14.1-4.1,18.2-9.3c1.1,1.1,13.4,13.7,14.8,15.2c-5.9,6.3-17.1,15.6-33,15.6c-24.1,0-44.9-18.9-44.9-44.5s20.4-44.9,44.9-44.9
	c16,0,26.7,8.5,32.7,14.5C1046.7,169.4,1034.1,182.1,1032.6,183.9"/>
<path fill="#EE302C" d="M1047.8,198.4c0-24.9,20-44.9,44.5-44.9c24.9,0,44.9,20,44.9,44.9c0,24.5-20,44.5-44.5,44.5
	C1067.9,242.9,1047.8,223.2,1047.8,198.4 M1069.7,198.4c0,13,10,23.4,23,23.4c13,0,23-10.4,23-23.4c0-13-10-23.4-23-23.4
	C1079.7,175,1069.7,185.4,1069.7,198.4"/>
<polygon fill="#EE302C" points="1144.7,241.1 1144.7,155.7 1212.6,155.7 1212.6,176.9 1166.6,176.9 1166.6,188.4 1202.2,188.4 
	1202.2,209.5 1166.6,209.5 1166.6,241.1 "/>
<polygon fill="#EE302C" points="1221.8,241.1 1221.8,155.7 1289.7,155.7 1289.7,176.9 1243.7,176.9 1243.7,188.4 1279.4,188.4 
	1279.4,209.5 1243.7,209.5 1243.7,241.1 "/>
<polygon fill="#EE302C" points="1299,241.1 1299,155.7 1358.4,155.7 1358.4,176.9 1320.5,176.9 1320.5,188 1347.6,188 1347.6,209.1 
	1320.5,209.1 1320.5,219.9 1358.4,219.9 1358.4,241.1 "/>
<polygon fill="#EE302C" points="1369.5,241.1 1369.5,155.7 1428.9,155.7 1428.9,176.9 1391,176.9 1391,188 1418.1,188 1418.1,209.1 
	1391,209.1 1391,219.9 1428.9,219.9 1428.9,241.1 "/>
<path fill="#FFFFFF" d="M969.5,93.4c0-25.6,20.4-46,46-46c25.6,0,46,20.4,46,46c0,25.2-20.4,46-46,46
	C990,139,969.5,118.6,969.5,93.4 M991.8,93.4c0,13.4,10.4,24.1,23.7,24.1s23.4-10.4,23.4-24.1c0-13.4-10.4-24.1-23.7-24.1
	C1002.2,68.9,991.8,79.7,991.8,93.4"/>
<polygon fill="#FFFFFF" points="1074.2,136.8 1074.2,49.2 1143.9,49.2 1143.9,71.1 1096.8,71.1 1096.8,83 1133.2,83 1133.2,104.5 
	1096.8,104.5 1096.8,136.8 "/>
<polygon fill="#FFFFFF" points="1153.6,136.8 1153.6,49.2 1223.3,49.2 1223.3,71.1 1176.2,71.1 1176.2,83 1212.6,83 1212.6,104.5 
	1176.2,104.5 1176.2,136.8 "/>
<rect x="1233.4" y="83" fill="#FFFFFF" width="22.6" height="54.2"/>
<path fill="#FFFFFF" d="M1333.5,78.2c-3.3-3-8.2-8.9-18.2-8.9c-13,0-23.7,10.8-23.7,24.1c0,12.6,10.4,23.7,23.7,23.7
	c7.4,0,14.5-4.5,18.6-9.6c1.5,1.5,14.1,14.1,15.2,15.6c-5.9,6.7-17.8,16.3-33.8,16.3c-24.9,0-46.4-19.3-46.4-46
	c0-26.3,21.1-46,46.4-46c16.7,0,27.5,8.5,33.8,14.8C1347.6,63.3,1335,76.3,1333.5,78.2"/>
<polygon fill="#FFFFFF" points="1359.5,136.8 1359.5,49.2 1428.9,49.2 1428.9,71.1 1381.4,71.1 1381.4,82.6 1418.1,82.6 
	1418.1,104.1 1381.4,104.1 1381.4,115.3 1428.9,115.3 1428.9,136.8 "/>
<path fill="#EE302C" d="M997.7,292.6H892c-54.2-4.8-94.6-17.1-104.3-32.3h313.9C1092.7,275.6,1051.9,287.8,997.7,292.6"/>
<path fill="#EE302C" d="M782.2,49.2c0.4,3.7,1.1,7.4,1.9,11.1c-3.3-0.7-6.7-1.1-10-1.1c-25.6,0-46,20.4-46,46c0,25.2,20.4,46,46,46
	c13.7,0,26.3-6.3,34.5-16c22.6,45.6,57.1,84.6,99.8,112.1h43.8V49.2H782.2z M774,129.4c-13.4,0-23.7-10.4-23.7-24.1
	c0-13.4,10.4-24.1,23.4-24.1c6.3,0,12.2,2.6,16.3,6.7c1.9,7,4.5,14.1,7,21.1C795.5,120.8,786.3,129.4,774,129.4"/>
<path fill="#FFFFFF" d="M1132.1,267.4c0.7,1.5,1.1,3.7,1.1,5.2c-0.4,0.4-1.1,0.7-1.5,0.4c-1.1-3-3-4.8-5.9-4.8
	c-2.6,0-4.1,1.5-4.1,4.1c0,2.6,2.6,4.1,5.2,5.6c3.3,1.9,6.7,4.1,6.7,8.9c0,5.2-4.5,7.4-9.6,7.4c-3,0-5.6-0.7-7-1.9
	c-0.4-1.1-0.7-4.5-0.7-6.7c0.4-0.4,1.1-0.4,1.5,0c1.1,3.7,3.3,6.7,7,6.7c2.2,0,4.5-1.5,4.5-4.1c0-3-2.6-4.8-5.2-5.9
	c-3.7-2.2-6.7-4.5-6.7-8.2c0-4.8,4.1-7.4,8.9-7.4C1128.7,266.3,1131.3,266.7,1132.1,267.4"/>
<path fill="#FFFFFF" d="M1175.8,279.6c0,8.2-5.6,14.1-14.1,14.1c-7.4,0-13.7-5.2-13.7-13.7c0-8.2,6.3-14.1,14.1-14.1
	C1169.9,266.3,1175.8,271.8,1175.8,279.6 M1161.7,268.1c-4.5,0-7.4,4.1-7.4,11.5c0,5.9,2.6,12.6,8.5,12.6c5.9,0,7.4-5.9,7.4-11.1
	C1169.9,275.2,1167.7,268.1,1161.7,268.1"/>
<path fill="#FFFFFF" d="M1199.6,285.6c0,4.8,0,5.6,2.6,5.6l1.5,0.4c0.4,0.4,0.4,1.5,0,1.5c-2.2,0-4.1-0.4-6.3-0.4s-4.5,0-6.3,0.4
	c-0.4-0.4-0.7-1.5,0-1.5l1.5-0.4c2.6-0.4,2.6-1.1,2.6-5.6v-24.5c0-4.1,0-4.5-2.2-5.6l-0.7-0.4c-0.4-0.4-0.4-1.1,0-1.5
	c1.5-0.4,4.8-1.5,7-2.6c0.4,0,0.4,0,0.7,0.4c0,1.9-0.4,5.2-0.4,8.2V285.6L1199.6,285.6z"/>
<path fill="#FFFFFF" d="M1226.7,283.4c0,4.5,1.1,7.4,6.3,7.4c1.9,0,4.1-0.7,5.2-1.9c0.7-0.7,1.5-1.9,1.5-3.7v-10.8
	c0-4.5-0.4-4.5-2.6-5.2l-0.7-0.4c-0.4-0.4-0.4-1.1,0-1.5c2.6,0,6.3-0.4,7.8-1.1c0.4,0,0.4,0.4,0.7,0.4c0,1.1-0.4,3.3-0.4,5.6v11.1
	c0,5.2,0.4,7,2.2,7c0.7,0,1.5,0,2.6-0.4c0.4,0.4,0.4,1.5,0,1.9c-2.6,0.4-6.3,1.1-8.5,2.6c-0.4,0-0.7-0.4-0.7-0.4v-2.6
	c0-0.7-0.4-0.7-0.7-0.7c-1.9,1.1-5.2,3.3-9.3,3.3c-5.9,0-8.2-3-8.2-8.2v-11.1c0-4.1,0-4.8-1.9-5.6l-0.7-0.4c-0.4-0.4-0.4-1.1,0-1.5
	c3,0,5.6-0.7,7-1.1c0.4,0,0.7,0.4,0.7,0.4c0,1.1-0.4,2.6-0.4,5.6L1226.7,283.4L1226.7,283.4z"/>
<path fill="#FFFFFF" d="M1272.7,270c-1.1,0-1.1,0.4-1.1,1.5v12.2c0,3.7,0.4,7.4,4.8,7.4c0.7,0,1.1,0,1.9-0.4s1.5-0.7,1.5-0.7
	c0.4,0,0.7,0.7,0.7,1.1c-1.1,1.5-3.7,3-7,3c-5.6,0-7-3.3-7-7v-15.2c0-1.9,0-1.9-1.5-1.9h-1.9c-0.4-0.4-0.4-1.1-0.4-1.5
	c1.9-0.7,3.7-1.5,4.1-2.2c0.7-0.7,2.2-2.6,2.6-4.1c0.4,0,1.1,0,1.5,0.4v3c0,1.1,0,1.1,1.1,1.1h7.4c0.7,0.7,0.7,2.2,0,2.6h-6.7V270z"
	/>
<path fill="#FFFFFF" d="M1298.3,274.1c0-2.6,0-3-1.9-4.1l-0.7-0.4c-0.4-0.4-0.4-1.1,0-1.1c1.5-0.4,5.2-2.2,6.7-3.3
	c0.4,0,0.7,0,0.7,0.4c0,2.2-0.4,5.6-0.4,8.2v11.9c0,4.8,0,5.6,2.6,5.9l1.5,0.4c0.4,0.4,0.4,1.5,0,1.5c-1.9,0-4.1-0.4-6.3-0.4
	s-4.5,0-6.3,0.4c-0.4-0.4-0.7-1.5,0-1.5l1.5-0.4c2.6-0.4,2.6-1.1,2.6-5.9V274.1L1298.3,274.1z M1303.8,258.1c0,2.2-1.5,3.3-3.3,3.3
	c-2.2,0-3.3-1.5-3.3-3.3c0-2.2,1.5-3.7,3.7-3.7C1302.4,254.8,1303.8,256.3,1303.8,258.1"/>
<path fill="#FFFFFF" d="M1349.5,279.6c0,8.2-5.6,14.1-14.1,14.1c-7.4,0-13.7-5.2-13.7-13.7c0-8.2,6.3-14.1,14.1-14.1
	C1343.5,266.3,1349.5,271.8,1349.5,279.6 M1335.4,268.1c-4.5,0-7.4,4.1-7.4,11.5c0,5.9,2.6,12.6,8.5,12.6c5.9,0,7.4-5.9,7.4-11.1
	C1343.9,275.2,1341.7,268.1,1335.4,268.1"/>
<path fill="#FFFFFF" d="M1369.2,274.1c0-2.6,0-3-1.9-4.1l-0.7-0.4c-0.4-0.4-0.4-1.1,0-1.1c1.5-0.4,5.2-2.2,6.7-3.3
	c0.4,0,0.7,0,0.7,0.4c0,1.5,0,2.6,0,3s0.4,0.7,0.7,0.7c2.6-1.9,5.9-3.3,9.3-3.3c5.6,0,7.8,3.7,7.8,8.2v11.5c0,4.8,0,5.6,2.6,5.6
	l1.5,0.4c0.4,0.4,0.4,1.5,0,1.5c-1.9,0-4.1-0.4-6.3-0.4s-4.5,0-6.3,0.4c-0.4-0.4-0.7-1.5,0-1.5l1.1-0.4c2.6-0.4,2.6-1.1,2.6-5.6
	v-9.6c0-3.7-1.9-6.7-6.3-6.7c-2.6,0-4.8,1.1-5.6,2.2s-1.1,2.2-1.1,4.1v10c0,4.8,0,5.2,2.6,5.6l1.1,0.4c0.4,0.4,0.4,1.5,0,1.5
	c-1.9,0-3.7-0.4-5.9-0.4c-2.2,0-4.5,0-6.3,0.4c-0.4-0.4-0.7-1.5,0-1.5l1.5-0.4c2.6-0.4,2.6-1.1,2.6-5.6v-11.5H1369.2z"/>
<path fill="#FFFFFF" d="M1426.3,267.4c0.7,1.5,1.1,3.7,1.1,5.2c-0.4,0.4-1.1,0.7-1.5,0.4c-1.1-3-3-4.8-5.9-4.8
	c-2.6,0-4.1,1.5-4.1,4.1c0,2.6,2.6,4.1,5.2,5.6c3.3,1.9,6.7,4.1,6.7,8.9c0,5.2-4.5,7.4-9.6,7.4c-3,0-5.6-0.7-7-1.9
	c-0.4-1.1-0.7-4.5-0.7-6.7c0.4-0.4,1.1-0.4,1.5,0c1.1,3.7,3.3,6.7,7,6.7c2.2,0,4.5-1.5,4.5-4.1c0-3-2.6-4.8-5.2-5.9
	c-3.7-2.2-6.7-4.5-6.7-8.2c0-4.8,4.1-7.4,8.9-7.4C1423.3,266.3,1425.5,266.7,1426.3,267.4"/>
<rect x="1233.4" y="49.2" fill="#221A15" width="22.6" height="22.3"/>
</svg>
