<?xml version="1.0" encoding="utf-8"?>
<!-- Generator: Adobe Illustrator 18.0.0, SVG Export Plug-In . SVG Version: 6.00 Build 0)  -->
<!DOCTYPE svg PUBLIC "-//W3C//DTD SVG 1.1//EN" "http://www.w3.org/Graphics/SVG/1.1/DTD/svg11.dtd">
<svg version="1.1" id="Layer_1" xmlns="http://www.w3.org/2000/svg" xmlns:xlink="http://www.w3.org/1999/xlink" x="0px" y="0px"
	 viewBox="0 0 49.9 17.9" enable-background="new 0 0 49.9 17.9" xml:space="preserve">
<polygon fill="#FFFFFF" stroke="#FFFFFF" stroke-miterlimit="10" points="-0.5,0 -0.5,18.5 50,18.5 64.4,9.2 49.9,0.4 "/>
<path fill="#221A15" d="M21.7,10c-0.2-0.2-0.6-0.6-1.3-0.6c-0.9,0-1.6,0.7-1.6,1.7c0,0.9,0.7,1.7,1.6,1.7c0.5,0,1-0.3,1.3-0.7
	c0.1,0.1,1,1,1.1,1.1c-0.4,0.4-1.2,1.1-2.4,1.1c-1.7,0-3.2-1.3-3.2-3.2s1.5-3.2,3.2-3.2c1.1,0,1.9,0.6,2.3,1
	C22.7,9,21.8,9.9,21.7,10"/>
<path fill="#221A15" d="M22.8,11c0-1.8,1.4-3.2,3.2-3.2c1.8,0,3.2,1.4,3.2,3.2c0,1.7-1.4,3.2-3.2,3.2C24.2,14.2,22.8,12.8,22.8,11
	 M24.3,11c0,0.9,0.7,1.7,1.6,1.7c0.9,0,1.6-0.7,1.6-1.7S26.9,9.4,26,9.4C25.1,9.4,24.3,10.1,24.3,11"/>
<polygon fill="#221A15" points="29.7,14.1 29.7,8 34.5,8 34.5,9.5 31.2,9.5 31.2,10.3 33.8,10.3 33.8,11.8 31.2,11.8 31.2,14.1 "/>
<polygon fill="#221A15" points="35.2,14.1 35.2,8 40,8 40,9.5 36.7,9.5 36.7,10.3 39.3,10.3 39.3,11.8 36.7,11.8 36.7,14.1 "/>
<polygon fill="#221A15" points="40.7,14.1 40.7,8 44.9,8 44.9,9.5 42.2,9.5 42.2,10.3 44.1,10.3 44.1,11.8 42.2,11.8 42.2,12.6 
	44.9,12.6 44.9,14.1 "/>
<polygon fill="#221A15" points="45.7,14.1 45.7,8 49.9,8 49.9,9.5 47.2,9.5 47.2,10.3 49.2,10.3 49.2,11.8 47.2,11.8 47.2,12.6 
	49.9,12.6 49.9,14.1 "/>
<path fill="#EE302C" d="M17.2,3.5c0-1.8,1.5-3.3,3.3-3.3s3.3,1.5,3.3,3.3c0,1.8-1.5,3.3-3.3,3.3C18.7,6.8,17.2,5.3,17.2,3.5
	 M18.8,3.5c0,1,0.7,1.7,1.7,1.7s1.7-0.7,1.7-1.7c0-1-0.7-1.7-1.7-1.7C19.5,1.8,18.8,2.6,18.8,3.5"/>
<polygon fill="#EE302C" points="24.7,6.6 24.7,0.4 29.6,0.4 29.6,2 26.3,2 26.3,2.8 28.9,2.8 28.9,4.3 26.3,4.3 26.3,6.6 "/>
<polygon fill="#EE302C" points="30.3,6.6 30.3,0.4 35.3,0.4 35.3,2 31.9,2 31.9,2.8 34.5,2.8 34.5,4.3 31.9,4.3 31.9,6.6 "/>
<rect x="36" y="2.8" fill="#EE302C" width="1.6" height="3.9"/>
<path fill="#EE302C" d="M43.1,2.5c-0.2-0.2-0.6-0.6-1.3-0.6c-0.9,0-1.7,0.8-1.7,1.7c0,0.9,0.7,1.7,1.7,1.7c0.5,0,1-0.3,1.3-0.7
	c0.1,0.1,1,1,1.1,1.1c-0.4,0.5-1.3,1.2-2.4,1.2c-1.8,0-3.3-1.4-3.3-3.3c0-1.9,1.5-3.3,3.3-3.3c1.2,0,2,0.6,2.4,1.1
	C44.1,1.4,43.2,2.3,43.1,2.5"/>
<polygon fill="#EE302C" points="45,6.6 45,0.4 49.9,0.4 49.9,2 46.5,2 46.5,2.8 49.2,2.8 49.2,4.3 46.5,4.3 46.5,5.1 49.9,5.1 
	49.9,6.6 "/>
<path fill="#221A15" d="M19.2,17.7h-7.5c-3.9-0.3-6.7-1.2-7.4-2.3h22.4C26,16.5,23.1,17.4,19.2,17.7"/>
<path fill="#221A15" d="M3.9,0.4c0,0.3,0.1,0.5,0.1,0.8C3.8,1.1,3.5,1.1,3.3,1.1C1.5,1.1,0,2.6,0,4.4c0,1.8,1.5,3.3,3.3,3.3
	c1,0,1.9-0.4,2.5-1.1c1.6,3.3,4.1,6,7.1,8H16V0.4H3.9z M3.3,6.1c-1,0-1.7-0.7-1.7-1.7c0-1,0.7-1.7,1.7-1.7c0.4,0,0.9,0.2,1.2,0.5
	c0.1,0.5,0.3,1,0.5,1.5C4.8,5.5,4.1,6.1,3.3,6.1"/>
<path fill="#221A15" d="M28.8,15.9c0.1,0.1,0.1,0.3,0.1,0.4c0,0-0.1,0.1-0.1,0c-0.1-0.2-0.2-0.3-0.4-0.3c-0.2,0-0.3,0.1-0.3,0.3
	s0.2,0.3,0.4,0.4c0.2,0.1,0.5,0.3,0.5,0.6c0,0.4-0.3,0.5-0.7,0.5c-0.2,0-0.4-0.1-0.5-0.1c0-0.1-0.1-0.3-0.1-0.5c0,0,0.1,0,0.1,0
	c0.1,0.3,0.2,0.5,0.5,0.5c0.2,0,0.3-0.1,0.3-0.3c0-0.2-0.2-0.3-0.4-0.4c-0.3-0.2-0.5-0.3-0.5-0.6c0-0.3,0.3-0.5,0.6-0.5
	C28.5,15.9,28.7,15.9,28.8,15.9"/>
<path fill="#221A15" d="M31.9,16.8c0,0.6-0.4,1-1,1c-0.5,0-1-0.4-1-1c0-0.6,0.4-1,1-1C31.5,15.9,31.9,16.3,31.9,16.8 M30.9,16
	c-0.3,0-0.5,0.3-0.5,0.8c0,0.4,0.2,0.9,0.6,0.9s0.5-0.4,0.5-0.8C31.5,16.5,31.3,16,30.9,16"/>
<path fill="#221A15" d="M33.6,17.2c0,0.3,0,0.4,0.2,0.4l0.1,0c0,0,0,0.1,0,0.1c-0.2,0-0.3,0-0.4,0s-0.3,0-0.4,0c0,0-0.1-0.1,0-0.1
	l0.1,0c0.2,0,0.2-0.1,0.2-0.4v-1.7c0-0.3,0-0.3-0.2-0.4l-0.1,0c0,0,0-0.1,0-0.1c0.1,0,0.3-0.1,0.5-0.2c0,0,0,0,0.1,0
	c0,0.1,0,0.4,0,0.6C33.6,15.4,33.6,17.2,33.6,17.2z"/>
<path fill="#221A15" d="M35.5,17.1c0,0.3,0.1,0.5,0.4,0.5c0.1,0,0.3-0.1,0.4-0.1c0.1-0.1,0.1-0.1,0.1-0.3v-0.8c0-0.3,0-0.3-0.2-0.4
	l-0.1,0c0,0,0-0.1,0-0.1c0.2,0,0.4,0,0.6-0.1c0,0,0,0,0.1,0c0,0.1,0,0.2,0,0.4v0.8c0,0.4,0,0.5,0.2,0.5c0.1,0,0.1,0,0.2,0
	c0,0,0,0.1,0,0.1c-0.2,0-0.4,0.1-0.6,0.2c0,0-0.1,0-0.1,0v-0.2c0-0.1,0-0.1-0.1-0.1c-0.1,0.1-0.4,0.2-0.7,0.2
	c-0.4,0-0.6-0.2-0.6-0.6v-0.8c0-0.3,0-0.3-0.1-0.4L35,16c0,0,0-0.1,0-0.1c0.2,0,0.4-0.1,0.5-0.1c0,0,0.1,0,0.1,0c0,0.1,0,0.2,0,0.4
	C35.5,16.3,35.5,17.1,35.5,17.1z"/>
<path fill="#221A15" d="M38.8,16.1c-0.1,0-0.1,0-0.1,0.1v0.9c0,0.3,0,0.5,0.3,0.5c0.1,0,0.1,0,0.1,0s0.1-0.1,0.1-0.1
	c0,0,0.1,0.1,0.1,0.1c-0.1,0.1-0.3,0.2-0.5,0.2c-0.4,0-0.5-0.2-0.5-0.5v-1.1c0-0.1,0-0.1-0.1-0.1h-0.1c0,0,0-0.1,0-0.1
	c0.1-0.1,0.3-0.1,0.3-0.2c0.1-0.1,0.2-0.2,0.2-0.3c0,0,0.1,0,0.1,0v0.2c0,0.1,0,0.1,0.1,0.1h0.5c0.1,0.1,0.1,0.2,0,0.2L38.8,16.1
	L38.8,16.1L38.8,16.1z"/>
<path fill="#221A15" d="M40.6,16.4c0-0.2,0-0.2-0.1-0.3l-0.1,0c0,0,0-0.1,0-0.1c0.1,0,0.4-0.2,0.5-0.2c0,0,0.1,0,0.1,0
	c0,0.2,0,0.4,0,0.6v0.8c0,0.3,0,0.4,0.2,0.4l0.1,0c0,0,0,0.1,0,0.1c-0.1,0-0.3,0-0.4,0c-0.2,0-0.3,0-0.4,0c0,0-0.1-0.1,0-0.1l0.1,0
	c0.2,0,0.2-0.1,0.2-0.4C40.6,17.2,40.6,16.4,40.6,16.4z M41,15.3c0,0.2-0.1,0.2-0.2,0.2c-0.2,0-0.2-0.1-0.2-0.2
	c0-0.2,0.1-0.3,0.3-0.3C40.9,15,41,15.1,41,15.3"/>
<path fill="#221A15" d="M44.3,16.8c0,0.6-0.4,1-1,1c-0.5,0-1-0.4-1-1c0-0.6,0.4-1,1-1C43.8,15.9,44.3,16.3,44.3,16.8 M43.3,16
	c-0.3,0-0.5,0.3-0.5,0.8c0,0.4,0.2,0.9,0.6,0.9s0.5-0.4,0.5-0.8C43.9,16.5,43.7,16,43.3,16"/>
<path fill="#221A15" d="M45.7,16.4c0-0.2,0-0.2-0.1-0.3l-0.1,0c0,0,0-0.1,0-0.1c0.1,0,0.4-0.2,0.5-0.2c0,0,0.1,0,0.1,0
	c0,0.1,0,0.2,0,0.2c0,0,0,0.1,0.1,0.1c0.2-0.1,0.4-0.2,0.7-0.2c0.4,0,0.6,0.3,0.6,0.6v0.8c0,0.3,0,0.4,0.2,0.4l0.1,0
	c0,0,0,0.1,0,0.1c-0.1,0-0.3,0-0.4,0s-0.3,0-0.4,0c0,0-0.1-0.1,0-0.1l0.1,0c0.2,0,0.2-0.1,0.2-0.4v-0.7c0-0.3-0.1-0.5-0.4-0.5
	c-0.2,0-0.3,0.1-0.4,0.2S46,16.4,46,16.5v0.7c0,0.3,0,0.4,0.2,0.4l0.1,0c0,0,0,0.1,0,0.1c-0.1,0-0.3,0-0.4,0s-0.3,0-0.4,0
	c0,0-0.1-0.1,0-0.1l0.1,0c0.2,0,0.2-0.1,0.2-0.4L45.7,16.4C45.7,16.4,45.7,16.4,45.7,16.4z"/>
<path fill="#221A15" d="M49.7,15.9c0.1,0.1,0.1,0.3,0.1,0.4c0,0-0.1,0.1-0.1,0c-0.1-0.2-0.2-0.3-0.4-0.3c-0.2,0-0.3,0.1-0.3,0.3
	s0.2,0.3,0.4,0.4c0.2,0.1,0.5,0.3,0.5,0.6c0,0.4-0.3,0.5-0.7,0.5c-0.2,0-0.4-0.1-0.5-0.1c0-0.1-0.1-0.3-0.1-0.5c0,0,0.1,0,0.1,0
	c0.1,0.3,0.2,0.5,0.5,0.5c0.2,0,0.3-0.1,0.3-0.3c0-0.2-0.2-0.3-0.4-0.4c-0.3-0.2-0.5-0.3-0.5-0.6c0-0.3,0.3-0.5,0.6-0.5
	C49.5,15.9,49.7,15.9,49.7,15.9"/>
<rect x="36" y="0.4" fill="#221A15" width="1.6" height="1.6"/>
</svg>
