<?xml version="1.0" encoding="utf-8"?>
<!-- Generator: Adobe Illustrator 18.1.1, SVG Export Plug-In . SVG Version: 6.00 Build 0)  -->
<svg version="1.1" id="Layer_1" xmlns="http://www.w3.org/2000/svg" xmlns:xlink="http://www.w3.org/1999/xlink" x="0px" y="0px"
	 viewBox="0 0 189.2 66.9" enable-background="new 0 0 189.2 66.9" xml:space="preserve">
<path fill="#221A15" d="M82.1,37.2c-0.9-0.8-2.1-2.3-4.8-2.3c-3.4,0-6.2,2.8-6.2,6.3c0,3.3,2.8,6.3,6.2,6.3c2,0,3.8-1.1,4.9-2.5
	c0.3,0.3,3.6,3.7,4,4.1c-1.6,1.7-4.6,4.2-8.9,4.2c-6.5,0-12.1-5.1-12.1-12c0-6.9,5.5-12.1,12.1-12.1c4.3,0,7.2,2.3,8.8,3.9
	C85.9,33.3,82.5,36.7,82.1,37.2"/>
<path fill="#221A15" d="M86.2,41.1c0-6.7,5.4-12.1,12-12.1c6.7,0,12.1,5.4,12.1,12.1c0,6.6-5.4,12-12,12
	C91.6,53.1,86.2,47.8,86.2,41.1 M92.1,41.1c0,3.5,2.7,6.3,6.2,6.3c3.5,0,6.2-2.8,6.2-6.3c0-3.5-2.7-6.3-6.2-6.3
	C94.8,34.8,92.1,37.6,92.1,41.1"/>
<polygon fill="#221A15" points="112.3,52.6 112.3,29.6 130.6,29.6 130.6,35.3 118.2,35.3 118.2,38.4 127.8,38.4 127.8,44.1 
	118.2,44.1 118.2,52.6 "/>
<polygon fill="#221A15" points="133.1,52.6 133.1,29.6 151.4,29.6 151.4,35.3 139,35.3 139,38.4 148.6,38.4 148.6,44.1 139,44.1 
	139,52.6 "/>
<polygon fill="#221A15" points="153.9,52.6 153.9,29.6 169.9,29.6 169.9,35.3 159.7,35.3 159.7,38.3 167,38.3 167,44 159.7,44 
	159.7,46.9 169.9,46.9 169.9,52.6 "/>
<polygon fill="#221A15" points="172.9,52.6 172.9,29.6 188.9,29.6 188.9,35.3 178.7,35.3 178.7,38.3 186,38.3 186,44 178.7,44 
	178.7,46.9 188.9,46.9 188.9,52.6 "/>
<path fill="#EE302C" d="M65.1,12.8c0-6.9,5.5-12.4,12.4-12.4c6.9,0,12.4,5.5,12.4,12.4c0,6.8-5.5,12.4-12.4,12.4
	C70.6,25.1,65.1,19.6,65.1,12.8 M71.1,12.8c0,3.6,2.8,6.5,6.4,6.5c3.6,0,6.3-2.8,6.3-6.5c0-3.6-2.8-6.5-6.4-6.5
	C73.9,6.2,71.1,9.1,71.1,12.8"/>
<polygon fill="#EE302C" points="93.3,24.5 93.3,0.9 112.1,0.9 112.1,6.8 99.4,6.8 99.4,10 109.2,10 109.2,15.8 99.4,15.8 99.4,24.5 
	"/>
<polygon fill="#EE302C" points="114.7,24.5 114.7,0.9 133.5,0.9 133.5,6.8 120.8,6.8 120.8,10 130.6,10 130.6,15.8 120.8,15.8 
	120.8,24.5 "/>
<rect x="136.2" y="10" fill="#EE302C" width="6.1" height="14.6"/>
<path fill="#EE302C" d="M163.2,8.7c-0.9-0.8-2.2-2.4-4.9-2.4c-3.5,0-6.4,2.9-6.4,6.5c0,3.4,2.8,6.4,6.4,6.4c2,0,3.9-1.2,5-2.6
	c0.4,0.4,3.8,3.8,4.1,4.2c-1.6,1.8-4.8,4.4-9.1,4.4c-6.7,0-12.5-5.2-12.5-12.4c0-7.1,5.7-12.4,12.5-12.4c4.5,0,7.4,2.3,9.1,4
	C167,4.7,163.6,8.2,163.2,8.7"/>
<polygon fill="#EE302C" points="170.2,24.5 170.2,0.9 188.9,0.9 188.9,6.8 176.1,6.8 176.1,9.9 186,9.9 186,15.7 176.1,15.7 
	176.1,18.7 188.9,18.7 188.9,24.5 "/>
<path fill-rule="evenodd" clip-rule="evenodd" fill="#221A15" d="M72.7,66.5H44.2c-14.6-1.3-25.5-4.6-28.1-8.7h84.6
	C98.3,61.9,87.3,65.2,72.7,66.5"/>
<path fill="#221A15" d="M14.6,0.9c0.1,1,0.3,2,0.5,3c-0.9-0.2-1.8-0.3-2.7-0.3C5.5,3.6,0,9.1,0,16c0,6.8,5.5,12.4,12.4,12.4
	c3.7,0,7.1-1.7,9.3-4.3c6.1,12.3,15.4,22.8,26.9,30.2h11.8V0.9H14.6z M12.4,22.5C8.8,22.5,6,19.7,6,16c0-3.6,2.8-6.5,6.3-6.5
	c1.7,0,3.3,0.7,4.4,1.8c0.5,1.9,1.2,3.8,1.9,5.7C18.2,20.2,15.7,22.5,12.4,22.5"/>
<path fill="#221A15" d="M108.9,59.7c0.2,0.4,0.3,1,0.3,1.4c-0.1,0.1-0.3,0.2-0.4,0.1c-0.3-0.8-0.8-1.3-1.6-1.3
	c-0.7,0-1.1,0.4-1.1,1.1c0,0.7,0.7,1.1,1.4,1.5c0.9,0.5,1.8,1.1,1.8,2.4c0,1.4-1.2,2-2.6,2c-0.8,0-1.5-0.2-1.9-0.5
	c-0.1-0.3-0.2-1.2-0.2-1.8c0.1-0.1,0.3-0.1,0.4,0c0.3,1,0.9,1.8,1.9,1.8c0.6,0,1.2-0.4,1.2-1.1c0-0.8-0.7-1.3-1.4-1.6
	c-1-0.6-1.8-1.2-1.8-2.2c0-1.3,1.1-2,2.4-2C108,59.4,108.7,59.5,108.9,59.7"/>
<path fill="#221A15" d="M120.7,63c0,2.2-1.5,3.8-3.8,3.8c-2,0-3.7-1.4-3.7-3.7c0-2.2,1.7-3.8,3.8-3.8
	C119.1,59.4,120.7,60.9,120.7,63 M116.9,59.9c-1.2,0-2,1.1-2,3.1c0,1.6,0.7,3.4,2.3,3.4c1.6,0,2-1.6,2-3
	C119.1,61.8,118.5,59.9,116.9,59.9"/>
<path fill="#221A15" d="M127.1,64.6c0,1.3,0,1.5,0.7,1.5l0.4,0.1c0.1,0.1,0.1,0.4,0,0.4c-0.6,0-1.1-0.1-1.7-0.1
	c-0.6,0-1.2,0-1.7,0.1c-0.1-0.1-0.2-0.4,0-0.4l0.4-0.1c0.7-0.1,0.7-0.3,0.7-1.5V58c0-1.1,0-1.2-0.6-1.5l-0.2-0.1
	c-0.1-0.1-0.1-0.3,0-0.4c0.4-0.1,1.3-0.4,1.9-0.7c0.1,0,0.1,0,0.2,0.1c0,0.5-0.1,1.4-0.1,2.2V64.6z"/>
<path fill="#221A15" d="M134.4,64c0,1.2,0.3,2,1.7,2c0.5,0,1.1-0.2,1.4-0.5c0.2-0.2,0.4-0.5,0.4-1v-2.9c0-1.2-0.1-1.2-0.7-1.4
	l-0.2-0.1c-0.1-0.1-0.1-0.3,0-0.4c0.7,0,1.7-0.1,2.1-0.3c0.1,0,0.1,0.1,0.2,0.1c0,0.3-0.1,0.9-0.1,1.5v3c0,1.4,0.1,1.9,0.6,1.9
	c0.2,0,0.4,0,0.7-0.1c0.1,0.1,0.1,0.4,0,0.5c-0.7,0.1-1.7,0.3-2.3,0.7c-0.1,0-0.2-0.1-0.2-0.1v-0.7c0-0.2-0.1-0.2-0.2-0.2
	c-0.5,0.3-1.4,0.9-2.5,0.9c-1.6,0-2.2-0.8-2.2-2.2v-3c0-1.1,0-1.3-0.5-1.5l-0.2-0.1c-0.1-0.1-0.1-0.3,0-0.4c0.8,0,1.5-0.2,1.9-0.3
	c0.1,0,0.2,0.1,0.2,0.1c0,0.3-0.1,0.7-0.1,1.5V64z"/>
<path fill="#221A15" d="M146.8,60.4c-0.3,0-0.3,0.1-0.3,0.4v3.3c0,1,0.1,2,1.3,2c0.2,0,0.3,0,0.5-0.1c0.2-0.1,0.4-0.2,0.4-0.2
	c0.1,0,0.2,0.2,0.2,0.3c-0.3,0.4-1,0.8-1.9,0.8c-1.5,0-1.9-0.9-1.9-1.9v-4.1c0-0.5,0-0.5-0.4-0.5h-0.5c-0.1-0.1-0.1-0.3-0.1-0.4
	c0.5-0.2,1-0.4,1.1-0.6c0.2-0.2,0.6-0.7,0.7-1.1c0.1,0,0.3,0,0.4,0.1v0.8c0,0.3,0,0.3,0.3,0.3h2c0.2,0.2,0.2,0.6,0,0.7H146.8z"/>
<path fill="#221A15" d="M153.7,61.5c0-0.7,0-0.8-0.5-1.1l-0.2-0.1c-0.1-0.1-0.1-0.3,0-0.3c0.4-0.1,1.4-0.6,1.8-0.9
	c0.1,0,0.2,0,0.2,0.1c0,0.6-0.1,1.5-0.1,2.2v3.2c0,1.3,0,1.5,0.7,1.6l0.4,0.1c0.1,0.1,0.1,0.4,0,0.4c-0.5,0-1.1-0.1-1.7-0.1
	c-0.6,0-1.2,0-1.7,0.1c-0.1-0.1-0.2-0.4,0-0.4l0.4-0.1c0.7-0.1,0.7-0.3,0.7-1.6V61.5z M155.2,57.2c0,0.6-0.4,0.9-0.9,0.9
	c-0.6,0-0.9-0.4-0.9-0.9c0-0.6,0.4-1,1-1C154.8,56.3,155.2,56.7,155.2,57.2"/>
<path fill="#221A15" d="M167.5,63c0,2.2-1.5,3.8-3.8,3.8c-2,0-3.7-1.4-3.7-3.7c0-2.2,1.7-3.8,3.8-3.8
	C165.9,59.4,167.5,60.9,167.5,63 M163.7,59.9c-1.2,0-2,1.1-2,3.1c0,1.6,0.7,3.4,2.3,3.4c1.6,0,2-1.6,2-3
	C166,61.8,165.4,59.9,163.7,59.9"/>
<path fill="#221A15" d="M172.8,61.5c0-0.7,0-0.8-0.5-1.1l-0.2-0.1c-0.1-0.1-0.1-0.3,0-0.3c0.4-0.1,1.4-0.6,1.8-0.9
	c0.1,0,0.2,0,0.2,0.1c0,0.4,0,0.7,0,0.8c0,0.1,0.1,0.2,0.2,0.2c0.7-0.5,1.6-0.9,2.5-0.9c1.5,0,2.1,1,2.1,2.2v3.1
	c0,1.3,0,1.5,0.7,1.5l0.4,0.1c0.1,0.1,0.1,0.4,0,0.4c-0.5,0-1.1-0.1-1.7-0.1c-0.6,0-1.2,0-1.7,0.1c-0.1-0.1-0.2-0.4,0-0.4l0.3-0.1
	c0.7-0.1,0.7-0.3,0.7-1.5V62c0-1-0.5-1.8-1.7-1.8c-0.7,0-1.3,0.3-1.5,0.6c-0.2,0.3-0.3,0.6-0.3,1.1v2.7c0,1.3,0,1.4,0.7,1.5l0.3,0.1
	c0.1,0.1,0.1,0.4,0,0.4c-0.5,0-1-0.1-1.6-0.1c-0.6,0-1.2,0-1.7,0.1c-0.1-0.1-0.2-0.4,0-0.4l0.4-0.1c0.7-0.1,0.7-0.3,0.7-1.5V61.5z"
	/>
<path fill="#221A15" d="M188.2,59.7c0.2,0.4,0.3,1,0.3,1.4c-0.1,0.1-0.3,0.2-0.4,0.1c-0.3-0.8-0.8-1.3-1.6-1.3
	c-0.7,0-1.1,0.4-1.1,1.1c0,0.7,0.7,1.1,1.4,1.5c0.9,0.5,1.8,1.1,1.8,2.4c0,1.4-1.2,2-2.6,2c-0.8,0-1.5-0.2-1.9-0.5
	c-0.1-0.3-0.2-1.2-0.2-1.8c0.1-0.1,0.3-0.1,0.4,0c0.3,1,0.9,1.8,1.9,1.8c0.6,0,1.2-0.4,1.2-1.1c0-0.8-0.7-1.3-1.4-1.6
	c-1-0.6-1.8-1.2-1.8-2.2c0-1.3,1.1-2,2.4-2C187.4,59.4,188,59.5,188.2,59.7"/>
<rect x="136.2" y="0.9" fill="#221A15" width="6.1" height="6"/>
</svg>
