<?xml version="1.0" encoding="utf-8"?>
<!-- Generator: Adobe Illustrator 17.0.0, SVG Export Plug-In . SVG Version: 6.00 Build 0)  -->
<!DOCTYPE svg PUBLIC "-//W3C//DTD SVG 1.1//EN" "http://www.w3.org/Graphics/SVG/1.1/DTD/svg11.dtd">
<svg version="1.1" id="Layer_1" xmlns="http://www.w3.org/2000/svg" xmlns:xlink="http://www.w3.org/1999/xlink" x="0px" y="0px"
	 width="64.667px" height="65.333px" viewBox="0 0 64.667 65.333" enable-background="new 0 0 64.667 65.333" xml:space="preserve">
<path fill="none" stroke="#F22A2A" stroke-miterlimit="10" d="M15.008,11.968"/>
<path fill="none" stroke="#F22A2A" stroke-miterlimit="10" d="M32.008,62.468"/>
<rect x="9.841" y="1.754" fill="#F2F2F2" width="38" height="58"/>
<rect x="9.841" y="1.754" fill="none" stroke="#F22A2A" stroke-width="2" stroke-miterlimit="10" width="38" height="58"/>
<rect x="1.841" y="9.754" fill="#F2F2F2" width="54" height="22"/>
<rect x="1.841" y="9.754" fill="none" stroke="#F22A2A" stroke-width="2" stroke-miterlimit="10" width="54" height="22"/>
<rect x="38.841" y="14.754" fill="#F22A2A" width="8" height="4"/>
<rect x="38.841" y="21.754" fill="#F22A2A" width="8" height="4"/>
<path fill="#F22A2A" d="M20.009,19.75c0,3.13-2.537,5.667-5.667,5.667c-3.129,0-5.666-2.537-5.666-5.667
	c0-3.13,2.537-5.667,5.666-5.667C17.472,14.083,20.009,16.62,20.009,19.75"/>
<rect x="1.841" y="59.754" fill="#F2F2F2" width="54" height="4"/>
<rect x="1.841" y="59.754" fill="none" stroke="#F22A2A" stroke-width="2" stroke-miterlimit="10" width="54" height="4"/>
<path fill="#F22A2A" d="M28.276,42.254c0,8-1.758,13.689-4.274,16.551l-6.165,0.407c-2.207-3.147-3.827-10.958-3.827-16.958H28.276z
	"/>
<path fill="none" stroke="#F22A2A" stroke-miterlimit="10" d="M28.276,42.254c0,8-1.758,13.689-4.274,16.551l-6.165,0.407
	c-2.207-3.147-3.827-10.958-3.827-16.958H28.276z"/>
<path fill="none" stroke="#F22A2A" stroke-width="2.248" stroke-miterlimit="10" d="M27.152,46.057c0,0,3.906-2.998,6.154,1.124
	c2.248,4.121-7.693,8.419-7.693,8.419"/>
<rect x="30.841" y="34.754" fill="#F22A2A" width="31" height="2"/>
<path fill="#F22A2A" d="M64.009,34.75c0,1.473-1.194,2.667-2.667,2.667c-1.473,0-2.666-1.194-2.666-2.667
	c0-1.473,1.193-2.667,2.666-2.667C62.815,32.083,64.009,33.277,64.009,34.75"/>
<polyline fill="none" stroke="#F22A2A" stroke-width="3" stroke-miterlimit="10" points="21.341,31.754 21.341,38.754 
	21.341,37.754 "/>
</svg>
