<?xml version="1.0" encoding="utf-8"?>
<!-- Generator: Adobe Illustrator 17.0.0, SVG Export Plug-In . SVG Version: 6.00 Build 0)  -->
<!DOCTYPE svg PUBLIC "-//W3C//DTD SVG 1.1//EN" "http://www.w3.org/Graphics/SVG/1.1/DTD/svg11.dtd">
<svg version="1.1" id="Layer_1" xmlns="http://www.w3.org/2000/svg" xmlns:xlink="http://www.w3.org/1999/xlink" x="0px" y="0px"
	 width="40.281px" height="53px" viewBox="0 0 40.281 53" enable-background="new 0 0 40.281 53" xml:space="preserve">
<path fill="#F2F2F2" d="M-11.492,66.421"/>
<path fill="none" stroke="#F22A2A" stroke-width="2" stroke-miterlimit="10" d="M-11.492,66.421"/>
<path fill="#F22A2A" d="M-1.834,59.957"/>
<path fill="none" stroke="#F22A2A" stroke-miterlimit="10" d="M-1.834,59.957"/>
<g>
	
		<rect x="0.696" y="50.344" fill="#7A9A01" stroke="#7A9A01" stroke-width="0.5548" stroke-miterlimit="10" width="39.536" height="1.534"/>
	<g>
		
			<rect x="0.696" y="0.837" fill="#7A9A01" stroke="#7A9A01" stroke-width="0.5548" stroke-miterlimit="10" width="39.536" height="6.305"/>
	</g>
	<g>
		
			<rect x="0.696" y="9.06" fill="#7A9A01" stroke="#7A9A01" stroke-width="0.5548" stroke-miterlimit="10" width="39.536" height="39.536"/>
		<g>
			<g>
				<line fill="none" stroke="#F2F2F2" stroke-miterlimit="10" x1="0.667" y1="12" x2="0.667" y2="12"/>
				<line fill="none" stroke="#F2F2F2" stroke-miterlimit="10" stroke-dasharray="1,3" x1="3.667" y1="12" x2="38.667" y2="12"/>
				<line fill="none" stroke="#F2F2F2" stroke-miterlimit="10" x1="39.667" y1="12" x2="40.667" y2="12"/>
			</g>
		</g>
		<g>
			<g>
				<line fill="none" stroke="#F2F2F2" stroke-miterlimit="10" x1="0.667" y1="46" x2="0.667" y2="46"/>
				<line fill="none" stroke="#F2F2F2" stroke-miterlimit="10" stroke-dasharray="1,3" x1="3.667" y1="46" x2="38.667" y2="46"/>
				<line fill="none" stroke="#F2F2F2" stroke-miterlimit="10" x1="39.667" y1="46" x2="40.667" y2="46"/>
			</g>
		</g>
	</g>
	<g>
		<g>
			<line fill="none" stroke="#F2F2F2" stroke-miterlimit="10" x1="0.667" y1="5" x2="0.667" y2="5"/>
			<line fill="none" stroke="#F2F2F2" stroke-miterlimit="10" stroke-dasharray="1,3" x1="3.667" y1="5" x2="38.667" y2="5"/>
			<line fill="none" stroke="#F2F2F2" stroke-miterlimit="10" x1="39.667" y1="5" x2="40.667" y2="5"/>
		</g>
	</g>
	<g>
		
			<ellipse transform="matrix(0.9317 0.3632 -0.3632 0.9317 11.8484 -5.0689)" fill="#F2F2F2" cx="19.405" cy="28.977" rx="7.216" ry="12.297"/>
		<g>
			<path fill="#7A9A01" d="M17.494,18.787c0,0,0.379,0.214,0.972,0.674c0.592,0.461,1.407,1.164,2.252,2.162
				c0.413,0.504,0.868,1.064,1.255,1.729c0.393,0.66,0.784,1.399,1.067,2.245c0.279,0.843,0.468,1.808,0.429,2.828
				c-0.013,0.22,0.001,0.367-0.034,0.649c-0.034,0.27-0.066,0.546-0.116,0.813c-0.108,0.516-0.28,1.041-0.536,1.554
				c-0.507,1.039-1.417,1.871-2.197,2.365c-0.788,0.513-1.477,0.842-2.013,1.189c-0.256,0.157-0.537,0.362-0.701,0.493
				c-0.188,0.183-0.121,0.09-0.233,0.216c-0.076,0.079-0.147,0.175-0.214,0.278c-0.28,0.408-0.495,0.942-0.662,1.463
				c-0.307,1.058-0.465,2.063-0.567,2.764c-0.095,0.711-0.15,1.118-0.15,1.118l-0.631,0.115c0,0-0.205-0.398-0.427-1.128
				c-0.217-0.731-0.497-1.797-0.469-3.189c0.01-0.698,0.091-1.487,0.433-2.353c0.087-0.215,0.19-0.434,0.32-0.653
				c0.086-0.177,0.382-0.561,0.452-0.644c0.355-0.4,0.661-0.679,1.023-0.984c0.71-0.565,1.433-0.992,1.985-1.389
				c0.568-0.398,0.877-0.746,1.13-1.174c0.124-0.218,0.209-0.479,0.297-0.759l0.093-0.396c0.037-0.12,0.047-0.382,0.071-0.566
				c0.095-0.599,0.047-1.234-0.052-1.883c-0.119-0.645-0.271-1.302-0.494-1.915c-0.227-0.609-0.44-1.211-0.687-1.75
				c-0.484-1.084-0.951-1.997-1.286-2.637c-0.341-0.644-0.537-1.012-0.537-1.012L17.494,18.787z"/>
		</g>
	</g>
</g>
</svg>
