<?xml version="1.0" encoding="utf-8"?>
<!-- Generator: Adobe Illustrator 17.0.0, SVG Export Plug-In . SVG Version: 6.00 Build 0)  -->
<!DOCTYPE svg PUBLIC "-//W3C//DTD SVG 1.1//EN" "http://www.w3.org/Graphics/SVG/1.1/DTD/svg11.dtd">
<svg version="1.1" id="Layer_1" xmlns="http://www.w3.org/2000/svg" xmlns:xlink="http://www.w3.org/1999/xlink" x="0px" y="0px"
	 width="150px" height="150px" viewBox="0 0 150 150" enable-background="new 0 0 150 150" xml:space="preserve">
<polygon fill="#F22A2A" points="0,135.337 150,69.499 150.25,150 0,150 "/>
<polygon opacity="0.9" fill="#211915" enable-background="new    " points="18.773,150 0,100 0,150 "/>
<polygon opacity="0.9" fill="#211915" enable-background="new    " points="150.25,102.027 119.182,0 150.117,0 "/>
<text transform="matrix(1 0 0 1 41.437 131.4033)" fill="#FFFFFF" font-family="'TypefaceSix'" font-size="12">1-19 EMPLOYEES</text>
<polygon fill="#F2F2F2" points="-1,101 0,0 119,0 141.483,73.237 11.39,130.338 "/>
<g>
	<polyline fill="none" stroke="#000000" stroke-width="2" stroke-miterlimit="10" points="80,64 80,39 63,39 63,54 	"/>
	<polyline fill="none" stroke="#000000" stroke-width="2" stroke-miterlimit="10" points="55,44 55,30 72,30 72,38 	"/>
	<rect x="67.518" y="43.534" fill="none" stroke="#000000" stroke-width="2" stroke-miterlimit="10" width="7.965" height="8.446"/>
</g>
</svg>
