<?xml version="1.0" encoding="utf-8"?>
<!-- Generator: Adobe Illustrator 17.0.0, SVG Export Plug-In . SVG Version: 6.00 Build 0)  -->
<!DOCTYPE svg PUBLIC "-//W3C//DTD SVG 1.1//EN" "http://www.w3.org/Graphics/SVG/1.1/DTD/svg11.dtd">
<svg version="1.1" id="Layer_1" xmlns="http://www.w3.org/2000/svg" xmlns:xlink="http://www.w3.org/1999/xlink" x="0px" y="0px"
	 width="45.667px" height="56.333px" viewBox="0 0 45.667 56.333" enable-background="new 0 0 45.667 56.333" xml:space="preserve">
<path fill="#F2F2F2" d="M-7.492,59.754"/>
<path fill="none" stroke="#F22A2A" stroke-width="2" stroke-miterlimit="10" d="M-7.492,59.754"/>
<polygon fill="#F22A2A" points="5.491,1.29 40.381,2.29 37.774,8.253 43.166,19.179 43.166,53.091 31.685,55.29 2.166,53.29 
	2.166,17.221 5.382,7.818 "/>
<polygon fill="none" stroke="#F22A2A" stroke-miterlimit="10" points="5.491,1.29 40.381,2.29 37.774,8.253 43.166,19.179 
	43.166,53.091 31.685,55.29 2.166,53.29 2.166,17.221 5.382,7.818 "/>
<polyline fill="none" stroke="#F2F2F2" stroke-miterlimit="10" points="44.167,18.147 44.167,53.967 31.167,56.333 31.167,18.715 
	34.572,10.588 34.055,1.647 40.78,1.647 39.179,8.573 5.209,7.542 "/>
<polygon fill="#F2F2F2" points="25.684,46.359 8.686,45.359 8.686,24.043 25.684,24.043 "/>
<path fill="#F22A2A" d="M21.53,36.763c-1.329,4.305-4.454,7.162-6.981,6.382c-2.526-0.78-3.496-4.902-2.167-9.206
	c1.329-4.305,4.454-7.162,6.98-6.382C21.888,28.336,22.859,32.458,21.53,36.763"/>
<ellipse transform="matrix(0.9555 0.295 -0.295 0.9555 11.1819 -3.4287)" fill="none" stroke="#F22A2A" stroke-width="0.291" stroke-miterlimit="10" cx="16.956" cy="35.351" rx="4.787" ry="8.157"/>
<path fill="#F2F2F2" d="M15.204,28.701c0,0,0.259,0.127,0.675,0.399c0.414,0.277,0.986,0.703,1.592,1.324
	c0.301,0.311,0.622,0.665,0.914,1.083c0.283,0.425,0.595,0.883,0.806,1.438c0.229,0.54,0.386,1.176,0.427,1.846
	c0.001,0.146,0.016,0.243,0.005,0.431c-0.011,0.18-0.02,0.364-0.042,0.542c-0.05,0.345-0.132,0.701-0.275,1.053
	c-0.279,0.715-0.846,1.307-1.337,1.671c-0.496,0.38-0.938,0.625-1.281,0.877c-0.148,0.105-0.362,0.299-0.407,0.336
	c-0.062,0.078-0.206,0.218-0.204,0.238c-0.025,0.051-0.061,0.053-0.1,0.14c-0.164,0.284-0.276,0.648-0.361,1.001
	c-0.154,0.713-0.21,1.387-0.245,1.855c-0.029,0.475-0.046,0.747-0.046,0.747l-0.412,0.106c0,0-0.151-0.254-0.336-0.726
	c-0.178-0.473-0.415-1.165-0.461-2.088c-0.032-0.462-0.01-0.988,0.181-1.575c0.031-0.138,0.133-0.335,0.21-0.501
	c0.099-0.202,0.134-0.237,0.208-0.363c0.262-0.348,0.421-0.496,0.657-0.728c0.439-0.412,0.893-0.733,1.241-1.02
	c0.358-0.29,0.541-0.537,0.695-0.829c0.073-0.151,0.124-0.326,0.165-0.517c0.025-0.172,0.058-0.339,0.054-0.645
	c0.024-0.404-0.008-0.822-0.128-1.245c-0.196-0.852-0.595-1.67-0.955-2.366c-0.371-0.695-0.723-1.276-0.975-1.684
	c-0.257-0.41-0.404-0.644-0.404-0.644L15.204,28.701z"/>
</svg>
